<?xml version="1.0" encoding="UTF-8" standalone="no"?>
<svg
   style="font-style:normal;font-weight:normal;font-size:12px;font-family:Dialog;color-interpolation:auto;fill:#000000;fill-opacity:1;stroke:#000000;stroke-width:1;stroke-linecap:square;stroke-linejoin:miter;stroke-miterlimit:10;stroke-dasharray:none;stroke-dashoffset:0;stroke-opacity:1;color-rendering:auto;image-rendering:auto;shape-rendering:auto;text-rendering:auto"
   width="510.82437"
   height="411.97131"
   version="1.1"
   id="svg64"
   sodipodi:docname="SDOF.svg"
   inkscape:version="1.4 (86a8ad7, 2024-10-11)"
   xmlns:inkscape="http://www.inkscape.org/namespaces/inkscape"
   xmlns:sodipodi="http://sodipodi.sourceforge.net/DTD/sodipodi-0.dtd"
   xmlns="http://www.w3.org/2000/svg"
   xmlns:svg="http://www.w3.org/2000/svg">
  <sodipodi:namedview
     id="namedview64"
     pagecolor="#ffffff"
     bordercolor="#000000"
     borderopacity="0.25"
     inkscape:showpageshadow="2"
     inkscape:pageopacity="0.0"
     inkscape:pagecheckerboard="0"
     inkscape:deskcolor="#d1d1d1"
     inkscape:zoom="1.9928571"
     inkscape:cx="278.74552"
     inkscape:cy="203.4767"
     inkscape:window-width="1920"
     inkscape:window-height="1017"
     inkscape:window-x="1912"
     inkscape:window-y="-8"
     inkscape:window-maximized="1"
     inkscape:current-layer="g64" />
  <!--Generated by the Batik Graphics2D SVG Generator-->
  <defs
     id="genericDefs">
    <clipPath
       clipPathUnits="userSpaceOnUse"
       id="clipPath64">
      <rect
         style="fill:none;stroke-width:0"
         id="rect65"
         width="510.82437"
         height="411.97131"
         x="1.0035844"
         y="6.5232973" />
    </clipPath>
  </defs>
  <g
     id="g64"
     transform="translate(-1.0035844,-6.5232973)">
    <defs
       id="defs1">
      <clipPath
         clipPathUnits="userSpaceOnUse"
         id="clipPath1">
        <path
           d="M 0,0 H 560 V 420 H 0 Z"
           id="path1" />
      </clipPath>
    </defs>
    <g
       style="color-interpolation:sRGB;fill:#ffffff;stroke:#ffffff;color-rendering:optimizeSpeed;image-rendering:optimizeSpeed;shape-rendering:crispEdges;text-rendering:optimizeSpeed"
       id="g2"
       clip-path="url(#clipPath64)">
      <rect
         x="0"
         width="560"
         height="420"
         y="0"
         style="stroke:none"
         id="rect2" />
      <path
         style="stroke:none"
         d="M 74,358 H 507 V 33 H 74 Z"
         id="path2" />
    </g>
    <g
       style="color-interpolation:linearRGB;fill:#262626;stroke:#262626;stroke-width:2.6667;stroke-linejoin:round;color-rendering:optimizeQuality;image-rendering:optimizeQuality;text-rendering:geometricPrecision"
       id="g15">
      <line
         y2="358"
         style="fill:none"
         x1="74"
         x2="507"
         y1="358"
         id="line2" />
      <line
         y2="33"
         style="fill:none"
         x1="74"
         x2="507"
         y1="33"
         id="line3" />
      <line
         y2="349.34"
         style="fill:none"
         x1="74"
         x2="74"
         y1="358"
         id="line4" />
      <line
         y2="349.34"
         style="fill:none"
         x1="160.60001"
         x2="160.60001"
         y1="358"
         id="line5" />
      <line
         y2="349.34"
         style="fill:none"
         x1="247.2"
         x2="247.2"
         y1="358"
         id="line6" />
      <line
         y2="349.34"
         style="fill:none"
         x1="333.79999"
         x2="333.79999"
         y1="358"
         id="line7" />
      <line
         y2="349.34"
         style="fill:none"
         x1="420.39999"
         x2="420.39999"
         y1="358"
         id="line8" />
      <line
         y2="349.34"
         style="fill:none"
         x1="507"
         x2="507"
         y1="358"
         id="line9" />
      <line
         y2="41.66"
         style="fill:none"
         x1="74"
         x2="74"
         y1="33"
         id="line10" />
      <line
         y2="41.66"
         style="fill:none"
         x1="160.60001"
         x2="160.60001"
         y1="33"
         id="line11" />
      <line
         y2="41.66"
         style="fill:none"
         x1="247.2"
         x2="247.2"
         y1="33"
         id="line12" />
      <line
         y2="41.66"
         style="fill:none"
         x1="333.79999"
         x2="333.79999"
         y1="33"
         id="line13" />
      <line
         y2="41.66"
         style="fill:none"
         x1="420.39999"
         x2="420.39999"
         y1="33"
         id="line14" />
      <line
         y2="41.66"
         style="fill:none"
         x1="507"
         x2="507"
         y1="33"
         id="line15" />
    </g>
    <g
       transform="translate(74,364.9333)"
       style="font-size:21.3333px;font-family:'Times New Roman';color-interpolation:linearRGB;fill:#262626;stroke:#262626;color-rendering:optimizeQuality;image-rendering:optimizeQuality;text-rendering:geometricPrecision"
       id="g16">
      <path
         style="stroke:none"
         d="m -4.7344,13.125 q 0,-2.375 0.711,-4.0938 0.7109,-1.7187 1.914,-2.5624 0.9219,-0.6563 1.9063,-0.6563 1.5937,0 2.8593,1.625 1.5938,2.0156 1.5938,5.4844 0,2.4062 -0.6953,4.1015 -0.6953,1.6954 -1.7813,2.461 -1.0859,0.7656 -2.0859,0.7656 -1.9844,0 -3.3125,-2.3594 -1.1094,-1.9687 -1.1094,-4.7656 z m 2,0.2656 q 0,2.8594 0.7032,4.6875 0.5937,1.5157 1.75,1.5157 0.5468,0 1.1484,-0.4922 Q 1.4688,18.6094 1.7656,17.4375 2.2344,15.6719 2.2344,12.4688 2.2344,10.0781 1.75,8.5 1.375,7.3125 0.7969,6.8281 0.375,6.4844 -0.2188,6.4844 q -0.7031,0 -1.2343,0.625 -0.75,0.8594 -1.0157,2.6797 -0.2656,1.8203 -0.2656,3.6015 z"
         id="path15" />
    </g>
    <g
       transform="translate(160.6,364.9333)"
       style="font-size:21.3333px;font-family:'Times New Roman';color-interpolation:linearRGB;fill:#262626;stroke:#262626;color-rendering:optimizeQuality;image-rendering:optimizeQuality;text-rendering:geometricPrecision"
       id="g17">
      <path
         style="stroke:none"
         d="m -3.0312,7.4531 3.375,-1.6406 h 0.3437 v 11.7344 q 0,1.1719 0.0937,1.4609 0.0938,0.2891 0.4063,0.4375 0.3125,0.1485 1.25,0.1797 V 20 h -5.2344 v -0.375 q 0.9844,-0.0312 1.2735,-0.1797 0.289,-0.1484 0.3984,-0.3984 0.1094,-0.25 0.1094,-1.5 v -7.5 q 0,-1.5157 -0.0938,-1.9531 Q -1.1875,7.7656 -1.375,7.6094 -1.5625,7.4531 -1.8281,7.4531 q -0.375,0 -1.0625,0.3281 z"
         id="path16" />
    </g>
    <g
       transform="translate(247.2,364.9333)"
       style="font-size:21.3333px;font-family:'Times New Roman';color-interpolation:linearRGB;fill:#262626;stroke:#262626;color-rendering:optimizeQuality;image-rendering:optimizeQuality;text-rendering:geometricPrecision"
       id="g18">
      <path
         style="stroke:none"
         d="M 4.125,17.3281 3.1562,20 h -8.2031 v -0.375 q 3.625,-3.3125 5.1016,-5.3984 1.4765,-2.086 1.4765,-3.8204 0,-1.3281 -0.8124,-2.1796 Q -0.0938,7.375 -1.2188,7.375 -2.25,7.375 -3.0625,7.9766 -3.875,8.5781 -4.2656,9.7344 h -0.3906 q 0.2656,-1.8906 1.3281,-2.9063 1.0625,-1.0156 2.6406,-1.0156 1.7031,0 2.8359,1.0859 1.1328,1.086 1.1328,2.5547 0,1.0625 -0.5,2.125 -0.75,1.6563 -2.4531,3.5157 -2.5625,2.7812 -3.1875,3.3593 h 3.625 q 1.1094,0 1.5547,-0.0859 0.4453,-0.086 0.8047,-0.336 0.3594,-0.25 0.625,-0.7031 z"
         id="path17" />
    </g>
    <g
       transform="translate(333.8,364.9333)"
       style="font-size:21.3333px;font-family:'Times New Roman';color-interpolation:linearRGB;fill:#262626;stroke:#262626;color-rendering:optimizeQuality;image-rendering:optimizeQuality;text-rendering:geometricPrecision"
       id="g19">
      <path
         style="stroke:none"
         d="m -4.4375,8.7344 q 0.5937,-1.3906 1.5,-2.1563 0.9063,-0.7656 2.2656,-0.7656 1.6719,0 2.5625,1.0781 0.6719,0.8125 0.6719,1.7344 0,1.5156 -1.9063,3.1406 1.2813,0.5 1.9376,1.4375 0.6562,0.9375 0.6562,2.1875 0,1.8125 -1.1406,3.125 -1.5,1.7344 -4.3438,1.7344 -1.4062,0 -1.914,-0.3516 -0.5078,-0.3515 -0.5078,-0.7422 0,-0.3124 0.2421,-0.5312 0.2422,-0.2188 0.586,-0.2188 0.25,0 0.5156,0.0782 0.1875,0.0468 0.7969,0.3672 0.6094,0.3203 0.8437,0.3828 0.3907,0.125 0.8125,0.125 1.0469,0 1.8203,-0.8125 0.7735,-0.8125 0.7735,-1.9219 0,-0.8125 -0.3594,-1.5781 -0.2656,-0.5781 -0.5781,-0.875 -0.4375,-0.4063 -1.211,-0.7422 -0.7734,-0.3359 -1.5703,-0.3359 H -2.3125 V 12.7969 Q -1.5,12.6875 -0.6875,12.2031 0.125,11.7188 0.5,11.0469 0.875,10.375 0.875,9.5625 0.875,8.5 0.2109,7.8516 -0.4531,7.2031 -1.4375,7.2031 q -1.5937,0 -2.6563,1.7031 z"
         id="path18" />
    </g>
    <g
       transform="translate(420.4,364.9333)"
       style="font-size:21.3333px;font-family:'Times New Roman';color-interpolation:linearRGB;fill:#262626;stroke:#262626;color-rendering:optimizeQuality;image-rendering:optimizeQuality;text-rendering:geometricPrecision"
       id="g20">
      <path
         style="stroke:none"
         d="m 4.2656,14.875 v 1.4531 H 2.4062 V 20 H 0.7188 V 16.3281 H -5.1719 V 15.0156 L 1.2812,5.8125 h 1.125 v 9.0625 z m -3.5468,0 V 7.9688 l -4.8907,6.9062 z"
         id="path19" />
    </g>
    <g
       transform="translate(507,364.9333)"
       style="font-size:21.3333px;font-family:'Times New Roman';color-interpolation:linearRGB;fill:#262626;stroke:#262626;color-rendering:optimizeQuality;image-rendering:optimizeQuality;text-rendering:geometricPrecision"
       id="g21">
      <path
         style="stroke:none"
         d="m 3.6094,6.0938 -0.7969,1.75 H -1.375 l -0.9062,1.8593 q 2.7187,0.4063 4.3124,2.0157 1.3594,1.4062 1.3594,3.2812 0,1.1094 -0.4453,2.0391 Q 2.5,17.9688 1.8203,18.625 1.1406,19.2812 0.3125,19.6875 -0.8594,20.25 -2.1094,20.25 q -1.25,0 -1.8203,-0.4297 Q -4.5,19.3906 -4.5,18.875 q 0,-0.2812 0.2422,-0.5 0.2422,-0.2188 0.5859,-0.2188 0.2813,0 0.4766,0.0782 0.1953,0.0781 0.6797,0.4218 0.7656,0.5313 1.5625,0.5313 1.2031,0 2.1093,-0.9063 0.9063,-0.9062 0.9063,-2.2031 0,-1.2656 -0.8125,-2.3593 Q 0.4375,12.625 -0.9844,12.0312 -2.1094,11.5781 -4.0312,11.5 L -1.375,6.0938 Z"
         id="path20" />
    </g>
    <g
       transform="translate(290.5002,391.2667)"
       style="font-size:24px;font-family:mwa_cmr10;color-interpolation:linearRGB;fill:#262626;stroke:#262626;color-rendering:optimizeQuality;image-rendering:optimizeQuality;text-rendering:geometricPrecision"
       id="g27">
      <path
         style="stroke:none"
         d="m -38.6709,20.1599 v -0.8437 q 1.2031,0 2.336,-0.1329 1.1328,-0.1328 1.1328,-0.6328 V 5.363 q 0,-0.5156 -0.2813,-0.6328 -0.2812,-0.1172 -0.9375,-0.1172 h -1 q -1.9844,0 -2.8125,0.8594 -0.4375,0.4375 -0.625,1.3906 -0.1875,0.9532 -0.3125,2.3907 h -0.6875 l 0.4531,-5.4844 h 14.6563 l 0.4531,5.4844 H -26.999 Q -27.1396,7.7068 -27.3037,6.8005 -27.4678,5.8943 -27.9209,5.4724 -28.7646,4.613 -30.7334,4.613 h -1 q -0.4375,0 -0.6797,0.0313 -0.2422,0.0312 -0.3906,0.2031 -0.1484,0.1719 -0.1484,0.5156 v 13.1875 q 0,0.5 1.1328,0.6328 1.1328,0.1329 2.3359,0.1329 v 0.8437 z"
         id="path21" />
      <path
         style="stroke:none"
         d="m -24.6657,20.1599 v -0.8437 q 0.8282,0 1.3516,-0.1329 0.5234,-0.1328 0.5234,-0.6328 v -6.5468 q 0,-0.9219 -0.3515,-1.1329 -0.3516,-0.2109 -1.4141,-0.2109 V 9.8162 l 3.4531,-0.2657 v 9 q 0,0.5 0.461,0.6328 0.4609,0.1329 1.2265,0.1329 v 0.8437 z m 1.0313,-14.7344 q 0,-0.5312 0.3984,-0.9297 0.3985,-0.3984 0.9141,-0.3984 0.3281,0 0.6484,0.1797 0.3203,0.1797 0.4922,0.4922 0.1719,0.3125 0.1719,0.6562 0,0.5157 -0.3984,0.9141 -0.3985,0.3984 -0.9141,0.3984 -0.5156,0 -0.9141,-0.3984 -0.3984,-0.3984 -0.3984,-0.9141 z"
         id="path22" />
      <path
         style="stroke:none"
         d="m -18.0146,20.1599 v -0.8437 q 0.8125,0 1.3438,-0.1329 0.5312,-0.1328 0.5312,-0.6328 v -6.5468 q 0,-0.6407 -0.1953,-0.9297 -0.1953,-0.2891 -0.5547,-0.3516 -0.3594,-0.0625 -1.125,-0.0625 V 9.8162 l 3.4844,-0.2657 v 2.3438 q 0.4687,-1.0313 1.4141,-1.6875 0.9453,-0.6563 2.0546,-0.6563 2.7657,0 3.25,2.25 0.4844,-1 1.4063,-1.625 0.9219,-0.625 2.0312,-0.625 1.0938,0 1.836,0.3516 0.7422,0.3516 1.1172,1.0703 0.375,0.7188 0.375,1.8125 v 5.7656 q 0,0.5 0.5312,0.6328 0.5313,0.1329 1.3438,0.1329 v 0.8437 h -5.5 v -0.8437 q 0.8281,0 1.3515,-0.1329 0.5235,-0.1328 0.5235,-0.6328 V 12.863 q 0,-1.2187 -0.336,-1.9531 -0.3359,-0.7344 -1.3984,-0.7344 -1.375,0 -2.2813,1.1094 -0.9062,1.1094 -0.9062,2.5313 v 4.7343 q 0,0.5 0.5312,0.6328 0.5313,0.1329 1.3438,0.1329 v 0.8437 h -5.5 v -0.8437 q 0.8281,0 1.3516,-0.1329 0.5234,-0.1328 0.5234,-0.6328 V 12.863 q 0,-1.1718 -0.3359,-1.9297 -0.336,-0.7578 -1.3985,-0.7578 -1.3906,0 -2.289,1.1094 -0.8985,1.1094 -0.8985,2.5313 v 4.7343 q 0,0.5 0.5313,0.6328 0.5312,0.1329 1.3437,0.1329 v 0.8437 z"
         id="path23" />
      <path
         style="stroke:none"
         d="m 7.2511,20.4255 q -1.4688,0 -2.6953,-0.7656 Q 3.3292,18.8943 2.6339,17.613 1.9386,16.3318 1.9386,14.8943 q 0,-1.4063 0.6406,-2.6719 0.6406,-1.2656 1.7813,-2.0469 1.1406,-0.7812 2.5468,-0.7812 1.0938,0 1.9141,0.375 0.8203,0.375 1.3438,1.0312 0.5234,0.6563 0.7968,1.5469 0.2735,0.8906 0.2735,1.9531 0,0.3125 -0.25,0.3125 H 4.0323 v 0.2657 q 0,1.9843 0.8047,3.414 0.8047,1.4297 2.6172,1.4297 0.7344,0 1.3672,-0.3281 0.6328,-0.3281 1.0938,-0.9141 0.4609,-0.5859 0.6171,-1.2578 0.0313,-0.0781 0.0938,-0.1406 0.0625,-0.0625 0.1406,-0.0625 h 0.2188 q 0.25,0 0.25,0.2969 -0.3438,1.3593 -1.4688,2.2343 -1.125,0.875 -2.5156,0.875 z M 4.0636,14.0193 h 5.4687 q 0,-0.9063 -0.25,-1.8281 -0.25,-0.9219 -0.8359,-1.5391 -0.5859,-0.6172 -1.5391,-0.6172 -1.3593,0 -2.1015,1.2734 -0.7422,1.2735 -0.7422,2.711 z"
         id="path24" />
      <path
         style="stroke:none"
         d="m 22.7771,26.1599 v -24 h 3.2813 V 3.113 h -2.3282 v 22.0938 h 2.3282 v 0.9531 z"
         id="path25" />
      <path
         style="stroke:none"
         d="m 27.3969,20.238 v -3.9218 q 0,-0.1875 0.2188,-0.1875 h 0.2812 q 0.1407,0 0.1875,0.1875 0.6719,3.4843 3.2344,3.4843 1.1406,0 1.9063,-0.5156 0.7656,-0.5156 0.7656,-1.5937 0,-0.7813 -0.5938,-1.3282 -0.5937,-0.5468 -1.4218,-0.7343 l -1.5938,-0.3282 q -0.8125,-0.1718 -1.4766,-0.5312 -0.664,-0.3594 -1.0859,-0.9688 -0.4219,-0.6093 -0.4219,-1.4062 0,-1.0469 0.5547,-1.7188 0.5547,-0.6718 1.4453,-0.9765 0.8907,-0.3047 1.9219,-0.3047 1.2344,0 2.1563,0.6562 l 0.6875,-0.5937 q 0,-0.0625 0.1093,-0.0625 h 0.1875 q 0.0625,0 0.125,0.0703 0.0625,0.0703 0.0625,0.1328 v 3.1406 q 0,0.2188 -0.1875,0.2188 h -0.2968 q -0.2188,0 -0.2188,-0.2188 0,-1.25 -0.6953,-2.0156 -0.6953,-0.7656 -1.9453,-0.7656 -1.0781,0 -1.8672,0.3984 -0.7891,0.3985 -0.7891,1.3828 0,0.6563 0.5625,1.086 0.5625,0.4297 1.3282,0.6172 l 1.625,0.3125 q 0.8281,0.1875 1.539,0.6328 0.711,0.4453 1.125,1.125 0.4141,0.6797 0.4141,1.5234 0,0.875 -0.2969,1.5156 -0.2969,0.6407 -0.8359,1.0625 -0.5391,0.4219 -1.2657,0.6172 -0.7265,0.1953 -1.5234,0.1953 -1.5,0 -2.5625,-1 l -0.875,0.9532 q 0,0.0468 -0.125,0.0468 h -0.1406 q -0.2188,0 -0.2188,-0.1875 z"
         id="path26" />
      <path
         style="stroke:none"
         d="m 36.598,26.1599 v -0.9531 h 2.3281 V 3.113 H 36.598 V 2.1599 h 3.2969 v 24 z"
         id="path27" />
    </g>
    <g
       style="color-interpolation:linearRGB;fill:#262626;stroke:#262626;stroke-width:2.6667;stroke-linejoin:round;color-rendering:optimizeQuality;image-rendering:optimizeQuality;text-rendering:geometricPrecision"
       id="g38">
      <line
         y2="33"
         style="fill:none"
         x1="74"
         x2="74"
         y1="358"
         id="line27" />
      <line
         y2="33"
         style="fill:none"
         x1="507"
         x2="507"
         y1="358"
         id="line28" />
      <line
         y2="358"
         style="fill:none"
         x1="74"
         x2="82.660004"
         y1="358"
         id="line29" />
      <line
         y2="276.75"
         style="fill:none"
         x1="74"
         x2="82.660004"
         y1="276.75"
         id="line30" />
      <line
         y2="195.5"
         style="fill:none"
         x1="74"
         x2="82.660004"
         y1="195.5"
         id="line31" />
      <line
         y2="114.25"
         style="fill:none"
         x1="74"
         x2="82.660004"
         y1="114.25"
         id="line32" />
      <line
         y2="33"
         style="fill:none"
         x1="74"
         x2="82.660004"
         y1="33"
         id="line33" />
      <line
         y2="358"
         style="fill:none"
         x1="507"
         x2="498.34"
         y1="358"
         id="line34" />
      <line
         y2="276.75"
         style="fill:none"
         x1="507"
         x2="498.34"
         y1="276.75"
         id="line35" />
      <line
         y2="195.5"
         style="fill:none"
         x1="507"
         x2="498.34"
         y1="195.5"
         id="line36" />
      <line
         y2="114.25"
         style="fill:none"
         x1="507"
         x2="498.34"
         y1="114.25"
         id="line37" />
      <line
         y2="33"
         style="fill:none"
         x1="507"
         x2="498.34"
         y1="33"
         id="line38" />
    </g>
    <g
       transform="translate(67.0667,358)"
       style="font-size:21.3333px;font-family:'Times New Roman';color-interpolation:linearRGB;fill:#262626;stroke:#262626;color-rendering:optimizeQuality;image-rendering:optimizeQuality;text-rendering:geometricPrecision"
       id="g39">
      <path
         style="stroke:none"
         d="m -17.1562,2.0156 h 5.3124 v 1.5469 h -5.3124 z m 8.7222,-7.0625 3.375,-1.6406 h 0.3437 V 5.0469 q 0,1.1719 0.0938,1.4609 0.0937,0.2891 0.4062,0.4375 0.3125,0.1485 1.25,0.1797 V 7.5 H -8.1996 V 7.125 q 0.9843,-0.0312 1.2734,-0.1797 0.2891,-0.1484 0.3984,-0.3984 0.1094,-0.25 0.1094,-1.5 v -7.5 q 0,-1.5157 -0.0937,-1.9531 -0.0782,-0.3282 -0.2657,-0.4844 -0.1875,-0.1563 -0.4531,-0.1563 -0.375,0 -1.0625,0.3281 z"
         id="path38" />
    </g>
    <g
       transform="translate(67.0667,276.75)"
       style="font-size:21.3333px;font-family:'Times New Roman';color-interpolation:linearRGB;fill:#262626;stroke:#262626;color-rendering:optimizeQuality;image-rendering:optimizeQuality;text-rendering:geometricPrecision"
       id="g40">
      <path
         style="stroke:none"
         d="m -33.1562,2.0156 h 5.3124 v 1.5469 h -5.3124 z m 7.0191,-1.3906 q 0,-2.375 0.7109,-4.0938 0.7109,-1.7187 1.9141,-2.5624 0.9218,-0.6563 1.9062,-0.6563 1.5938,0 2.8594,1.625 1.5937,2.0156 1.5937,5.4844 0,2.4062 -0.6953,4.1015 -0.6953,1.6954 -1.7812,2.461 -1.086,0.7656 -2.086,0.7656 -1.9843,0 -3.3125,-2.3594 -1.1093,-1.9687 -1.1093,-4.7656 z m 2,0.2656 q 0,2.8594 0.7031,4.6875 0.5937,1.5157 1.75,1.5157 0.5469,0 1.1484,-0.4922 0.6016,-0.4922 0.8985,-1.6641 0.4687,-1.7656 0.4687,-4.9687 0,-2.3907 -0.4844,-3.9688 -0.375,-1.1875 -0.9531,-1.6719 -0.4219,-0.3437 -1.0156,-0.3437 -0.7031,0 -1.2344,0.625 -0.75,0.8594 -1.0156,2.6797 -0.2656,1.8203 -0.2656,3.6015 z m 10.5156,4.625 q 0.4844,0 0.8125,0.3282 0.3281,0.3281 0.3281,0.8124 0,0.4688 -0.3359,0.7969 -0.336,0.3281 -0.8047,0.3281 -0.4688,0 -0.8047,-0.3281 -0.3359,-0.3281 -0.3359,-0.7969 0,-0.4843 0.3359,-0.8124 0.3359,-0.3282 0.8047,-0.3282 z m 11.8125,-11.9218 -0.7969,1.75 h -4.1875 l -0.9062,1.8593 q 2.7187,0.4063 4.3125,2.0157 1.3593,1.4062 1.3593,3.2812 0,1.1094 -0.4453,2.0391 -0.4453,0.9297 -1.125,1.5859 -0.6797,0.6562 -1.5078,1.0625 -1.1719,0.5625 -2.4219,0.5625 -1.25,0 -1.8203,-0.4297 -0.5703,-0.4297 -0.5703,-0.9453 0,-0.2812 0.2422,-0.5 0.2422,-0.2188 0.5859,-0.2188 0.2813,0 0.4766,0.0782 0.1953,0.0781 0.6797,0.4218 0.7656,0.5313 1.5625,0.5313 1.2031,0 2.1094,-0.9063 0.9062,-0.9062 0.9062,-2.2031 0,-1.2656 -0.8125,-2.3593 Q -4.9809,0.125 -6.4028,-0.4688 -7.5278,-0.9219 -9.4496,-1 l 2.6562,-5.4062 z"
         id="path39" />
    </g>
    <g
       transform="translate(67.0667,195.5)"
       style="font-size:21.3333px;font-family:'Times New Roman';color-interpolation:linearRGB;fill:#262626;stroke:#262626;color-rendering:optimizeQuality;image-rendering:optimizeQuality;text-rendering:geometricPrecision"
       id="g41">
      <path
         style="stroke:none"
         d="m -10.2344,0.625 q 0,-2.375 0.711,-4.0938 0.7109,-1.7187 1.914,-2.5624 0.9219,-0.6563 1.9063,-0.6563 1.5937,0 2.8593,1.625 1.5938,2.0156 1.5938,5.4844 0,2.4062 -0.6953,4.1015 -0.6953,1.6954 -1.7813,2.461 Q -4.8125,7.75 -5.8125,7.75 -7.7969,7.75 -9.125,5.3906 -10.2344,3.4219 -10.2344,0.625 Z m 2,0.2656 q 0,2.8594 0.7032,4.6875 0.5937,1.5157 1.75,1.5157 0.5468,0 1.1484,-0.4922 0.6016,-0.4922 0.8984,-1.6641 0.4688,-1.7656 0.4688,-4.9687 0,-2.3907 -0.4844,-3.9688 -0.375,-1.1875 -0.9531,-1.6719 -0.4219,-0.3437 -1.0157,-0.3437 -0.7031,0 -1.2343,0.625 -0.75,0.8594 -1.0157,2.6797 -0.2656,1.8203 -0.2656,3.6015 z"
         id="path40" />
    </g>
    <g
       transform="translate(67.0667,114.25)"
       style="font-size:21.3333px;font-family:'Times New Roman';color-interpolation:linearRGB;fill:#262626;stroke:#262626;color-rendering:optimizeQuality;image-rendering:optimizeQuality;text-rendering:geometricPrecision"
       id="g42">
      <path
         style="stroke:none"
         d="m -26.2344,0.625 q 0,-2.375 0.711,-4.0938 0.7109,-1.7187 1.914,-2.5624 0.9219,-0.6563 1.9063,-0.6563 1.5937,0 2.8593,1.625 1.5938,2.0156 1.5938,5.4844 0,2.4062 -0.6953,4.1015 -0.6953,1.6954 -1.7813,2.461 -1.0859,0.7656 -2.0859,0.7656 -1.9844,0 -3.3125,-2.3594 -1.1094,-1.9687 -1.1094,-4.7656 z m 2,0.2656 q 0,2.8594 0.7032,4.6875 0.5937,1.5157 1.75,1.5157 0.5468,0 1.1484,-0.4922 0.6016,-0.4922 0.8984,-1.6641 0.4688,-1.7656 0.4688,-4.9687 0,-2.3907 -0.4844,-3.9688 -0.375,-1.1875 -0.9531,-1.6719 -0.4219,-0.3437 -1.0157,-0.3437 -0.7031,0 -1.2343,0.625 -0.75,0.8594 -1.0157,2.6797 -0.2656,1.8203 -0.2656,3.6015 z m 10.5156,4.625 q 0.4844,0 0.8126,0.3282 0.3281,0.3281 0.3281,0.8124 0,0.4688 -0.336,0.7969 -0.3359,0.3281 -0.8047,0.3281 -0.4687,0 -0.8046,-0.3281 -0.336,-0.3281 -0.336,-0.7969 0,-0.4843 0.336,-0.8124 0.3359,-0.3282 0.8046,-0.3282 z m 11.8126,-11.9218 -0.7969,1.75 h -4.1875 l -0.9063,1.8593 q 2.7188,0.4063 4.3125,2.0157 1.3594,1.4062 1.3594,3.2812 0,1.1094 -0.4453,2.0391 Q -3.0156,5.4688 -3.6953,6.125 -4.375,6.7812 -5.2031,7.1875 -6.375,7.75 -7.625,7.75 q -1.25,0 -1.8203,-0.4297 -0.5703,-0.4297 -0.5703,-0.9453 0,-0.2812 0.2422,-0.5 0.2422,-0.2188 0.5859,-0.2188 0.2813,0 0.4766,0.0782 0.1953,0.0781 0.6797,0.4218 0.7656,0.5313 1.5624,0.5313 1.2032,0 2.1094,-0.9063 0.9063,-0.9062 0.9063,-2.2031 0,-1.2656 -0.8125,-2.3593 Q -5.0781,0.125 -6.5,-0.4688 -7.625,-0.9219 -9.5469,-1 l 2.6563,-5.4062 z"
         id="path41" />
    </g>
    <g
       transform="translate(67.0667,33)"
       style="font-size:21.3333px;font-family:'Times New Roman';color-interpolation:linearRGB;fill:#262626;stroke:#262626;color-rendering:optimizeQuality;image-rendering:optimizeQuality;text-rendering:geometricPrecision"
       id="g43">
      <path
         style="stroke:none"
         d="m -8.5312,-5.0469 3.375,-1.6406 h 0.3437 V 5.0469 q 0,1.1719 0.0937,1.4609 0.0938,0.2891 0.4063,0.4375 Q -4,7.0938 -3.0625,7.125 V 7.5 H -8.2969 V 7.125 q 0.9844,-0.0312 1.2735,-0.1797 0.289,-0.1484 0.3984,-0.3984 0.1094,-0.25 0.1094,-1.5 v -7.5 q 0,-1.5157 -0.0938,-1.9531 -0.0781,-0.3282 -0.2656,-0.4844 -0.1875,-0.1563 -0.4531,-0.1563 -0.375,0 -1.0625,0.3281 z"
         id="path42" />
    </g>
    <g
       transform="rotate(-90,112.28325,83.21655)"
       style="font-size:24px;font-family:mwa_cmmi10;color-interpolation:linearRGB;fill:#262626;stroke:#262626;color-rendering:optimizeQuality;image-rendering:optimizeQuality;text-rendering:geometricPrecision"
       id="g50">
      <path
         style="stroke:none"
         d="m -49.3167,-9.3276 q 0.4218,0.3281 1.2031,0.3281 0.75,0 1.3203,-0.7265 0.5703,-0.7266 0.7891,-1.5703 l 1.0781,-4.2657 q 0.2656,-1.1562 0.2656,-1.5781 0,-0.5937 -0.3359,-1.039 -0.336,-0.4454 -0.9297,-0.4454 -0.7656,0 -1.4297,0.4766 -0.6641,0.4766 -1.125,1.2031 -0.4609,0.7266 -0.6484,1.4766 -0.0469,0.1562 -0.1875,0.1562 h -0.2969 q -0.1875,0 -0.1875,-0.2187 v -0.0781 q 0.2344,-0.8907 0.7969,-1.7344 0.5625,-0.8438 1.3828,-1.375 0.8203,-0.5313 1.7422,-0.5313 0.875,0 1.5859,0.4688 0.7109,0.4687 1.0078,1.2812 0.4063,-0.7343 1.0469,-1.2421 0.6406,-0.5079 1.3906,-0.5079 0.5156,0 1.0547,0.1797 0.5391,0.1797 0.8828,0.5547 0.3438,0.375 0.3438,0.9375 0,0.6094 -0.3907,1.0547 -0.3906,0.4453 -1,0.4453 -0.3906,0 -0.6484,-0.25 -0.2578,-0.25 -0.2578,-0.625 0,-0.5 0.3437,-0.8828 0.3438,-0.3828 0.8282,-0.4453 -0.4375,-0.3438 -1.2032,-0.3438 -0.7656,0 -1.3359,0.711 -0.5703,0.7109 -0.8047,1.6015 l -1.0469,4.2344 q -0.2656,0.9688 -0.2656,1.5781 0,0.6094 0.3438,1.0547 0.3437,0.4453 0.9218,0.4453 1.125,0 2.0078,-0.9922 0.8829,-0.9921 1.1641,-2.1796 0.0469,-0.1407 0.1875,-0.1407 h 0.2969 q 0.0937,0 0.1562,0.0625 0.0625,0.0625 0.0625,0.1563 0,0.0156 -0.0312,0.0625 -0.3438,1.4375 -1.4297,2.5469 -1.0859,1.1093 -2.4609,1.1093 -0.875,0 -1.586,-0.4765 -0.7109,-0.4766 -1.0078,-1.2735 -0.375,0.7032 -1.0312,1.2266 -0.6563,0.5234 -1.4063,0.5234 -0.5156,0 -1.0625,-0.1797 -0.5469,-0.1796 -0.8906,-0.5546 -0.3438,-0.375 -0.3438,-0.9532 0,-0.5625 0.3985,-1.0234 0.3984,-0.4609 0.9765,-0.4609 0.4063,0 0.6719,0.2421 0.2656,0.2422 0.2656,0.6172 0,0.5157 -0.3359,0.8907 -0.3359,0.375 -0.8359,0.4687 z"
         id="path43" />
      <path
         style="stroke:none"
         d="m -30.0376,-2.687 q -1.3281,-1.0468 -2.2969,-2.414 -0.9687,-1.3672 -1.5859,-2.9141 -0.6172,-1.5469 -0.9219,-3.2344 -0.3047,-1.6875 -0.3047,-3.3906 0,-1.7187 0.3047,-3.4062 0.3047,-1.6875 0.9375,-3.25 0.6328,-1.5625 1.6016,-2.9219 0.9687,-1.3594 2.2656,-2.375 0,-0.0469 0.125,-0.0469 h 0.2188 q 0.0781,0 0.1328,0.0625 0.0547,0.0625 0.0547,0.1406 0,0.1094 -0.0469,0.1563 -1.1719,1.1562 -1.9531,2.4687 -0.7813,1.3125 -1.25,2.7891 -0.4688,1.4766 -0.6797,3.0703 -0.211,1.5938 -0.211,3.3125 0,7.625 4.0782,11.5938 0.0625,0.0625 0.0625,0.2031 0,0.0469 -0.0625,0.125 -0.0625,0.0781 -0.125,0.0781 h -0.2188 q -0.125,0 -0.125,-0.0469 z"
         id="path44" />
      <path
         style="stroke:none"
         d="m -26.6574,-10.5932 q 0,-0.3438 0.0782,-0.6563 l 1.7343,-6.8906 h -2.5156 q -0.25,0 -0.25,-0.3281 0.0938,-0.5156 0.3125,-0.5156 h 2.6563 l 0.9687,-3.9219 q 0.0938,-0.3125 0.375,-0.5391 0.2813,-0.2265 0.625,-0.2265 0.3125,0 0.5156,0.1875 0.2032,0.1875 0.2032,0.4843 0,0.0782 -0.0078,0.1172 -0.0079,0.0391 -0.0079,0.086 l -0.9687,3.8125 h 2.4687 q 0.25,0 0.25,0.3125 -0.0156,0.0625 -0.0468,0.2031 -0.0313,0.1406 -0.0938,0.2344 -0.0625,0.0937 -0.1719,0.0937 h -2.6093 l -1.7344,6.9375 q -0.1719,0.6719 -0.1719,1.1719 0,1.0312 0.7031,1.0312 1.0625,0 1.875,-0.9922 0.8125,-0.9921 1.25,-2.1796 0.0938,-0.1407 0.1875,-0.1407 h 0.2813 q 0.0937,0 0.1562,0.0625 0.0625,0.0625 0.0625,0.1563 0,0.0469 -0.0312,0.0625 -0.5156,1.4531 -1.5234,2.5547 -1.0079,1.1015 -2.3204,1.1015 -0.9375,0 -1.5937,-0.6172 -0.6563,-0.6171 -0.6563,-1.6015 z"
         id="path45" />
      <path
         style="stroke:none"
         d="m -17.9126,-2.6401 q -0.2187,0 -0.2187,-0.2031 0,-0.1094 0.0469,-0.1563 4.1093,-4.0156 4.1093,-11.6406 0,-7.625 -4.0625,-11.5937 -0.0937,-0.0625 -0.0937,-0.2032 0,-0.0781 0.0703,-0.1406 0.0703,-0.0625 0.1484,-0.0625 h 0.2188 q 0.0781,0 0.125,0.0469 1.7187,1.3594 2.8672,3.3047 1.1484,1.9453 1.6797,4.1484 0.5312,2.2031 0.5312,4.5 0,1.7031 -0.289,3.3438 -0.2891,1.6406 -0.9141,3.2421 -0.625,1.6016 -1.5859,2.961 -0.961,1.3594 -2.2891,2.4062 -0.0469,0.0469 -0.125,0.0469 z"
         id="path46" />
      <path
         style="stroke:none"
         d="m 0.702,-2.6401 v -24 h 3.2813 v 0.9531 H 1.6552 v 22.0938 h 2.3281 v 0.9531 z"
         id="path47" />
      <path
         style="stroke:none"
         d="m 5.2437,-8.6401 v -0.8437 q 0.8125,0 1.3438,-0.1329 0.5312,-0.1328 0.5312,-0.6328 v -6.5468 q 0,-0.6407 -0.1953,-0.9297 -0.1953,-0.2891 -0.5547,-0.3516 -0.3593,-0.0625 -1.125,-0.0625 v -0.8437 l 3.4844,-0.2657 v 2.3438 q 0.4688,-1.0313 1.4141,-1.6875 0.9453,-0.6563 2.0547,-0.6563 2.7656,0 3.25,2.25 0.4843,-1 1.4062,-1.625 0.9219,-0.625 2.0312,-0.625 1.0938,0 1.836,0.3516 0.7422,0.3516 1.1172,1.0703 0.375,0.7188 0.375,1.8125 v 5.7656 q 0,0.5 0.5312,0.6328 0.5313,0.1329 1.3438,0.1329 v 0.8437 h -5.5 v -0.8437 q 0.8281,0 1.3515,-0.1329 0.5235,-0.1328 0.5235,-0.6328 v -5.6875 q 0,-1.2187 -0.336,-1.9531 -0.3359,-0.7344 -1.3984,-0.7344 -1.375,0 -2.2813,1.1094 -0.9062,1.1094 -0.9062,2.5313 v 4.7343 q 0,0.5 0.5312,0.6328 0.5313,0.1329 1.3438,0.1329 v 0.8437 h -5.5 v -0.8437 q 0.8281,0 1.3516,-0.1329 0.5234,-0.1328 0.5234,-0.6328 v -5.6875 q 0,-1.1718 -0.3359,-1.9296 -0.336,-0.7579 -1.3985,-0.7579 -1.3906,0 -2.289,1.1094 -0.8985,1.1094 -0.8985,2.5313 v 4.7343 q 0,0.5 0.5313,0.6328 0.5312,0.1329 1.3437,0.1329 v 0.8437 z"
         id="path48" />
      <path
         style="stroke:none"
         d="m 25.2438,-8.6401 v -0.8437 q 0.8125,0 1.3437,-0.1329 0.5313,-0.1328 0.5313,-0.6328 v -6.5468 q 0,-0.6407 -0.1953,-0.9297 -0.1953,-0.2891 -0.5547,-0.3516 -0.3594,-0.0625 -1.125,-0.0625 v -0.8437 l 3.4844,-0.2657 v 2.3438 q 0.4687,-1.0313 1.414,-1.6875 0.9453,-0.6563 2.0547,-0.6563 2.7656,0 3.25,2.25 0.4844,-1 1.4063,-1.625 0.9218,-0.625 2.0312,-0.625 1.0938,0 1.836,0.3516 0.7421,0.3516 1.1171,1.0703 0.375,0.7188 0.375,1.8125 v 5.7656 q 0,0.5 0.5313,0.6328 0.5312,0.1329 1.3437,0.1329 v 0.8437 h -5.5 v -0.8437 q 0.8282,0 1.3516,-0.1329 0.5234,-0.1328 0.5234,-0.6328 v -5.6875 q 0,-1.2187 -0.3359,-1.9531 -0.3359,-0.7344 -1.3984,-0.7344 -1.375,0 -2.2813,1.1094 -0.9062,1.1094 -0.9062,2.5313 v 4.7343 q 0,0.5 0.5312,0.6328 0.5313,0.1329 1.3438,0.1329 v 0.8437 h -5.5 v -0.8437 q 0.8281,0 1.3515,-0.1329 0.5235,-0.1328 0.5235,-0.6328 v -5.6875 q 0,-1.1718 -0.336,-1.9296 -0.3359,-0.7579 -1.3984,-0.7579 -1.3906,0 -2.2891,1.1094 -0.8984,1.1094 -0.8984,2.5313 v 4.7343 q 0,0.5 0.5312,0.6328 0.5313,0.1329 1.3438,0.1329 v 0.8437 z"
         id="path49" />
      <path
         style="stroke:none"
         d="m 45.0564,-2.6401 v -0.9531 h 2.3281 V -25.687 h -2.3281 v -0.9531 h 3.2968 v 24 z"
         id="path50" />
    </g>
    <g
       transform="translate(290.5003,28.6)"
       style="font-weight:bold;font-size:23.4667px;font-family:'Times New Roman';color-interpolation:linearRGB;color-rendering:optimizeQuality;image-rendering:optimizeQuality;text-rendering:geometricPrecision"
       id="g51">
      <path
         style="stroke:none"
         d="m -112.7031,-5 v -0.4219 h 0.5156 q 0.6563,0 1.0078,-0.2031 0.3516,-0.2031 0.5235,-0.5625 0.1093,-0.2344 0.1093,-1.4219 V -17.625 q 0,-1.1719 -0.125,-1.4609 -0.125,-0.2891 -0.5,-0.5079 -0.375,-0.2187 -1.0156,-0.2187 h -0.5156 v -0.4219 h 6.8281 q 2.7188,0 4.3906,0.75 2.0313,0.9063 3.0782,2.75 1.0468,1.8438 1.0468,4.1719 0,1.5937 -0.5156,2.9531 -0.5156,1.3594 -1.3359,2.2344 -0.8203,0.875 -1.8907,1.4141 -1.0703,0.539 -2.6172,0.8203 Q -104.4062,-5 -105.875,-5 Z m 5.8125,-14.3594 v 11.875 q 0,0.9532 0.0937,1.1641 0.0938,0.2109 0.2969,0.3203 0.3125,0.1719 0.875,0.1719 1.875,0 2.875,-1.2813 1.3438,-1.7344 1.3438,-5.375 0,-2.9218 -0.9219,-4.6718 -0.7344,-1.375 -1.875,-1.875 -0.8125,-0.3438 -2.6875,-0.3282 z m 14.1133,-1.2344 q 0.7344,0 1.2422,0.5157 0.5078,0.5156 0.5078,1.2343 0,0.7188 -0.5156,1.2188 -0.5157,0.5 -1.2344,0.5 -0.7188,0 -1.2188,-0.5 -0.5,-0.5 -0.5,-1.2188 0,-0.7187 0.5,-1.2343 0.5,-0.5157 1.2188,-0.5157 z m 1.5781,5.0938 v 8.3281 q 0,1.1094 0.2578,1.4141 0.2578,0.3047 1.0078,0.3516 V -5 h -5.6718 v -0.4062 q 0.7031,-0.0157 1.0312,-0.4063 0.2344,-0.25 0.2344,-1.3594 v -6.1406 q 0,-1.1094 -0.2578,-1.4219 -0.2578,-0.3125 -1.0078,-0.3437 V -15.5 Z m 9.043,-0.2969 0.1718,3.5938 h -0.375 q -0.6875,-1.6094 -1.4218,-2.1875 -0.7344,-0.5782 -1.4688,-0.5782 -0.4531,0 -0.7812,0.3047 -0.3282,0.3047 -0.3282,0.711 0,0.3125 0.2188,0.5937 0.3594,0.4532 2.0156,1.5703 1.6562,1.1172 2.1719,1.8985 0.5156,0.7812 0.5156,1.75 0,0.875 -0.4375,1.7187 -0.4375,0.8438 -1.2344,1.2891 -0.7968,0.4453 -1.7656,0.4453 -0.75,0 -2,-0.4687 -0.3438,-0.125 -0.4688,-0.125 -0.3593,0 -0.6093,0.5624 h -0.375 L -88.5,-8.5 h 0.375 q 0.5,1.4844 1.3828,2.2266 0.8828,0.7422 1.6797,0.7422 0.5313,0 0.875,-0.3282 0.3437,-0.3281 0.3437,-0.7968 0,-0.5469 -0.3359,-0.9376 -0.3359,-0.3906 -1.5078,-1.1874 -1.7187,-1.1876 -2.2187,-1.8282 -0.75,-0.9218 -0.75,-2.0312 0,-1.2032 0.8359,-2.1875 0.8359,-0.9844 2.4297,-0.9844 0.8437,0 1.6406,0.4063 0.3125,0.1718 0.5,0.1718 0.2031,0 0.3281,-0.0859 0.125,-0.0859 0.3907,-0.4766 z m 6.5584,9.7344 v 3.9063 q 0,0.8124 0.125,1.1015 0.125,0.2891 0.3984,0.4219 0.2735,0.1328 1.0547,0.1328 v 0.4219 h -5.9844 V -0.5 q 0.7032,-0.0156 1.0313,-0.3906 0.2344,-0.25 0.2344,-1.3282 v -11.0937 q 0,-1.1094 -0.2657,-1.4219 -0.2656,-0.3125 -1,-0.3437 V -15.5 h 4.4063 v 1.375 q 0.5469,-0.7969 1.125,-1.1562 0.8125,-0.5313 1.7812,-0.5313 1.1563,0 2.1016,0.7266 0.9453,0.7265 1.4453,2.0156 0.5,1.2891 0.5,2.7734 0,1.5938 -0.5156,2.9141 -0.5156,1.3203 -1.4844,2.0078 -0.9687,0.6875 -2.1562,0.6875 -0.875,0 -1.625,-0.375 -0.5625,-0.2969 -1.1719,-1 z m 0,-1.1406 q 0.9687,1.375 2.0625,1.375 0.6094,0 1,-0.6407 0.5781,-0.9531 0.5781,-3.5937 0,-2.7187 -0.6406,-3.7187 -0.4219,-0.6563 -1.1406,-0.6563 -1.125,0 -1.8594,1.625 z m 13.0817,-13.0313 v 13.0625 q 0,1.1094 0.2578,1.4141 0.2578,0.3047 1.0078,0.3516 V -5 h -5.6719 v -0.4062 q 0.6875,-0.0157 1.0313,-0.4063 0.2187,-0.25 0.2187,-1.3594 v -10.875 q 0,-1.1093 -0.2578,-1.414 -0.2578,-0.3047 -0.9922,-0.3516 v -0.4219 z m 8.1835,13.6875 q -1.9062,1.6875 -3.4375,1.6875 -0.9062,0 -1.5,-0.5859 -0.5937,-0.5859 -0.5937,-1.4766 0,-1.2031 1.0312,-2.164 1.0313,-0.961 4.5,-2.5547 v -1.0469 q 0,-1.2031 -0.125,-1.5078 -0.125,-0.3047 -0.4843,-0.5391 -0.3594,-0.2344 -0.8125,-0.2344 -0.7344,0 -1.2032,0.3282 -0.2812,0.2031 -0.2812,0.4687 0,0.25 0.3125,0.5938 0.4219,0.4843 0.4219,0.9375 0,0.5468 -0.4063,0.9297 -0.4062,0.3828 -1.0781,0.3828 -0.7031,0 -1.1797,-0.4219 -0.4766,-0.4219 -0.4766,-1 0,-0.8125 0.6407,-1.5469 0.6406,-0.7343 1.7812,-1.125 1.1406,-0.3906 2.375,-0.3906 1.5,0 2.3672,0.6328 0.8672,0.6328 1.1328,1.3672 0.1563,0.4844 0.1563,2.1719 v 4.0781 q 0,0.7187 0.0547,0.9063 0.0546,0.1874 0.1718,0.2734 0.1172,0.0859 0.2578,0.0859 0.2969,0 0.5938,-0.4062 l 0.3437,0.2656 q -0.5625,0.8281 -1.164,1.2031 -0.6016,0.375 -1.3672,0.375 -0.9063,0 -1.4063,-0.4218 -0.5,-0.4219 -0.625,-1.2657 z m 0,-0.8281 v -3.5156 q -1.3437,0.7968 -2.0156,1.7187 -0.4375,0.5938 -0.4375,1.2188 0,0.5156 0.375,0.9062 0.2813,0.3125 0.7813,0.3125 0.5625,0 1.2968,-0.6406 z m 14.5,-0.3281 0.3438,0.2656 q -0.7344,1.3906 -1.8438,2.0703 -1.1093,0.6797 -2.3593,0.6797 -2.0938,0 -3.3516,-1.5859 -1.2578,-1.586 -1.2578,-3.8047 0,-2.1407 1.1406,-3.7657 1.3906,-1.9687 3.8125,-1.9687 1.625,0 2.586,0.8203 0.9609,0.8203 0.9609,1.8203 0,0.6407 -0.3828,1.0235 -0.3828,0.3828 -1.0235,0.3828 -0.6562,0 -1.0859,-0.4375 -0.4297,-0.4375 -0.5391,-1.5625 -0.0625,-0.7032 -0.3281,-0.9844 -0.25,-0.2812 -0.6094,-0.2812 -0.5312,0 -0.9062,0.5781 -0.5938,0.8593 -0.5938,2.6406 0,1.4844 0.4766,2.8437 0.4766,1.3594 1.2891,2.0157 0.625,0.4843 1.4531,0.4843 0.5625,0 1.0547,-0.2578 0.4922,-0.2578 1.164,-0.9765 z m 10.7309,-2.9219 h -5.7657 q 0.1094,2.0938 1.1094,3.2969 0.7813,0.9375 1.875,0.9375 0.6719,0 1.2188,-0.375 0.5468,-0.375 1.1718,-1.3594 l 0.3907,0.25 q -0.8594,1.7344 -1.8907,2.4609 -1.0312,0.7266 -2.3906,0.7266 -2.3281,0 -3.5312,-1.7969 -0.9688,-1.4531 -0.9688,-3.5937 0,-2.625 1.4219,-4.1797 1.4219,-1.5547 3.3281,-1.5547 1.5938,0 2.7656,1.3047 1.1719,1.3047 1.2657,3.8828 z m -2.7657,-0.75 q 0,-1.8125 -0.1953,-2.4844 -0.1953,-0.6718 -0.6172,-1.0312 -0.2343,-0.1875 -0.625,-0.1875 -0.5781,0 -0.9531,0.5625 -0.6562,1 -0.6562,2.75 v 0.3906 z m 8.6215,-4.125 v 1.375 q 0.875,-0.9375 1.6093,-1.3125 0.7344,-0.375 1.6094,-0.375 1.0156,0 1.6953,0.4687 0.6797,0.4688 1.0547,1.4376 0.9063,-1.0157 1.7266,-1.461 0.8203,-0.4453 1.7265,-0.4453 1.0938,0 1.7344,0.5 0.6406,0.5 0.8984,1.2656 0.2579,0.7657 0.2579,2.4531 v 4.2969 q 0,1.2188 0.2187,1.5078 0.2188,0.2891 0.9063,0.3829 V -5 h -5.4219 v -0.4062 q 0.6406,-0.0469 0.9375,-0.5 0.2031,-0.2969 0.2031,-1.3907 v -4.5156 q 0,-1.3906 -0.1094,-1.7734 -0.1093,-0.3829 -0.3515,-0.5703 -0.2422,-0.1876 -0.5703,-0.1876 -0.4844,0 -0.9766,0.3516 -0.4922,0.3516 -0.9922,1.0703 v 5.625 q 0,1.1407 0.1875,1.4375 0.25,0.4063 0.9844,0.4532 V -5 h -5.4375 v -0.4062 q 0.4375,-0.0157 0.6953,-0.211 0.2578,-0.1953 0.3359,-0.4766 0.0782,-0.2812 0.0782,-1.2031 v -4.5156 q 0,-1.4219 -0.1094,-1.7813 -0.1094,-0.3593 -0.375,-0.5624 -0.2656,-0.2032 -0.5625,-0.2032 -0.4531,0 -0.8281,0.2344 -0.5157,0.3594 -1.125,1.2031 v 5.625 q 0,1.125 0.2265,1.4766 0.2266,0.3515 0.9141,0.4141 V -5 h -5.4063 v -0.4062 q 0.6563,-0.0626 0.9375,-0.4219 0.1875,-0.25 0.1875,-1.4688 v -5.9219 q 0,-1.1874 -0.2187,-1.4843 -0.2188,-0.2969 -0.9063,-0.375 V -15.5 Z m 24.0705,4.875 h -5.7657 q 0.1094,2.0938 1.1094,3.2969 0.7813,0.9375 1.875,0.9375 0.6719,0 1.2188,-0.375 0.5468,-0.375 1.1718,-1.3594 l 0.3907,0.25 q -0.8594,1.7344 -1.8907,2.4609 -1.0312,0.7266 -2.3906,0.7266 -2.3281,0 -3.5312,-1.7969 -0.9688,-1.4531 -0.9688,-3.5937 0,-2.625 1.4219,-4.1797 1.4219,-1.5547 3.3281,-1.5547 1.5938,0 2.7656,1.3047 1.1719,1.3047 1.2657,3.8828 z m -2.7657,-0.75 q 0,-1.8125 -0.1953,-2.4844 -0.1953,-0.6718 -0.6172,-1.0312 -0.2343,-0.1875 -0.625,-0.1875 -0.5781,0 -0.9531,0.5625 -0.6562,1 -0.6562,2.75 v 0.3906 z m 8.559,-4.125 v 1.3594 q 0.8125,-0.875 1.5546,-1.2735 0.7422,-0.3984 1.586,-0.3984 1.0312,0 1.7031,0.5625 0.6719,0.5625 0.8906,1.4062 0.1875,0.6407 0.1875,2.4688 v 4.0781 q 0,1.2188 0.2188,1.5157 0.2187,0.2968 0.9219,0.375 V -5 H 8.3679 v -0.4062 q 0.5937,-0.0782 0.8437,-0.5 0.1875,-0.2657 0.1875,-1.3907 v -4.6719 q 0,-1.2812 -0.1016,-1.6171 -0.1015,-0.336 -0.3437,-0.5235 -0.2422,-0.1875 -0.5391,-0.1875 -0.9687,0 -1.7968,1.375 v 5.625 q 0,1.1875 0.2187,1.5 0.2188,0.3125 0.8125,0.3907 V -5 H 2.3366 v -0.4062 q 0.6719,-0.0626 0.9531,-0.4219 0.1875,-0.25 0.1875,-1.4688 v -5.9219 q 0,-1.1874 -0.2187,-1.4843 Q 3.0397,-15 2.3366,-15.0781 V -15.5 Z m 12.9098,-3.8438 V -15.5 h 2.5 v 1.1094 h -2.5 v 6.4844 q 0,0.9062 0.0859,1.1718 0.086,0.2656 0.2969,0.4297 0.2109,0.1641 0.3984,0.1641 0.7344,0 1.375,-1.1094 l 0.3438,0.2344 q -0.9063,2.1562 -2.9531,2.1562 -1,0 -1.6954,-0.5547 -0.6953,-0.5547 -0.8828,-1.2421 -0.1093,-0.375 -0.1093,-2.0626 v -5.6718 h -1.375 v -0.3906 q 1.4218,-1 2.414,-2.1016 0.9922,-1.1016 1.7422,-2.461 z m 14.2424,14.6563 -3.5313,-8.1406 q -0.6406,-1.4688 -1,-1.8594 -0.2656,-0.2969 -0.7656,-0.3906 V -15.5 h 5.5781 v 0.4219 q -0.5312,0 -0.7187,0.1875 -0.2657,0.25 -0.2657,0.5781 0,0.4219 0.4844,1.5625 l 1.7344,3.9375 1.375,-3.3906 q 0.5937,-1.4688 0.5937,-2.0781 0,-0.3438 -0.25,-0.5626 -0.25,-0.2187 -0.8906,-0.2343 V -15.5 h 3.4375 v 0.4219 q -0.5,0.0625 -0.8125,0.3672 -0.3125,0.3047 -0.9375,1.789 l -3.5,8.2344 z m 13.6093,-11.1094 0.1719,3.5938 h -0.375 q -0.6875,-1.6094 -1.4219,-2.1875 -0.7343,-0.5782 -1.4687,-0.5782 -0.4531,0 -0.7813,0.3047 -0.3281,0.3047 -0.3281,0.711 0,0.3125 0.2188,0.5937 0.3593,0.4532 2.0156,1.5703 1.6562,1.1172 2.1719,1.8985 0.5156,0.7812 0.5156,1.75 0,0.875 -0.4375,1.7187 -0.4375,0.8438 -1.2344,1.2891 -0.7969,0.4453 -1.7656,0.4453 -0.75,0 -2,-0.4687 -0.3438,-0.125 -0.4688,-0.125 -0.3593,0 -0.6093,0.5624 h -0.375 L 41.0357,-8.5 h 0.375 q 0.5,1.4844 1.3828,2.2266 0.8828,0.7422 1.6797,0.7422 0.5312,0 0.875,-0.3282 0.3437,-0.3281 0.3437,-0.7968 0,-0.5469 -0.3359,-0.9376 -0.3359,-0.3906 -1.5078,-1.1874 -1.7188,-1.1876 -2.2188,-1.8282 -0.75,-0.9218 -0.75,-2.0312 0,-1.2032 0.836,-2.1875 0.8359,-0.9844 2.4297,-0.9844 0.8437,0 1.6406,0.4063 0.3125,0.1718 0.5,0.1718 0.2031,0 0.3281,-0.0859 0.125,-0.0859 0.3906,-0.4766 z m 4.5897,7.3438 q 0.7813,0 1.3281,0.5469 0.5469,0.5468 0.5469,1.3281 0,0.7656 -0.5469,1.3125 -0.5468,0.5468 -1.3281,0.5468 -0.7812,0 -1.3203,-0.5468 -0.5391,-0.5469 -0.5391,-1.3125 0,-0.7813 0.5391,-1.3281 0.5391,-0.5469 1.3203,-0.5469 z m 23.3594,-11.7813 v 4.125 h -0.4063 q -0.3593,-1.4218 -0.7968,-2.0468 -0.4375,-0.625 -1.2032,-1 -0.4218,-0.2032 -1.5,-0.2032 h -1.125 v 11.75 q 0,1.1719 0.125,1.461 0.125,0.289 0.5,0.5078 0.375,0.2187 1.0313,0.2187 h 0.5 V -5 h -7.9688 v -0.4219 h 0.5 q 0.6719,0 1.0782,-0.2343 0.2812,-0.1563 0.4531,-0.5313 0.125,-0.2656 0.125,-1.4219 v -11.75 h -1.0938 q -1.5468,0 -2.2343,0.6563 -0.9844,0.9062 -1.2344,2.5937 H 61.641 v -4.125 z m 4.4139,-0.3594 q 0.7343,0 1.2422,0.5157 0.5078,0.5156 0.5078,1.2343 0,0.7188 -0.5157,1.2188 -0.5156,0.5 -1.2343,0.5 -0.7188,0 -1.2188,-0.5 -0.5,-0.5 -0.5,-1.2188 0,-0.7187 0.5,-1.2343 0.5,-0.5157 1.2188,-0.5157 z m 1.5781,5.0938 v 8.3281 q 0,1.1094 0.2578,1.4141 0.2578,0.3047 1.0078,0.3516 V -5 h -5.6719 v -0.4062 q 0.7032,-0.0157 1.0313,-0.4063 0.2344,-0.25 0.2344,-1.3594 v -6.1406 q 0,-1.1094 -0.2578,-1.4219 -0.2579,-0.3125 -1.0079,-0.3437 V -15.5 Z m 6.7617,0 v 1.375 q 0.875,-0.9375 1.6094,-1.3125 0.7343,-0.375 1.6093,-0.375 1.0157,0 1.6953,0.4687 0.6797,0.4688 1.0547,1.4376 0.9063,-1.0157 1.7266,-1.461 0.8203,-0.4453 1.7266,-0.4453 1.0937,0 1.7343,0.5 0.6407,0.5 0.8985,1.2656 0.2578,0.7657 0.2578,2.4531 v 4.2969 q 0,1.2188 0.2187,1.5078 0.2188,0.2891 0.9063,0.3829 V -5 h -5.4219 v -0.4062 q 0.6406,-0.0469 0.9375,-0.5 0.2031,-0.2969 0.2031,-1.3907 v -4.5156 q 0,-1.3906 -0.1093,-1.7734 -0.1094,-0.3829 -0.3516,-0.5703 -0.2422,-0.1876 -0.5703,-0.1876 -0.4844,0 -0.9766,0.3516 -0.4922,0.3516 -0.9922,1.0703 v 5.625 q 0,1.1407 0.1875,1.4375 0.25,0.4063 0.9844,0.4532 V -5 h -5.4375 v -0.4062 q 0.4375,-0.0157 0.6953,-0.211 0.2578,-0.1953 0.336,-0.4766 0.0781,-0.2812 0.0781,-1.2031 v -4.5156 q 0,-1.4219 -0.1094,-1.7813 -0.1094,-0.3593 -0.375,-0.5624 -0.2656,-0.2032 -0.5625,-0.2032 -0.4531,0 -0.8281,0.2344 -0.5156,0.3594 -1.125,1.2031 v 5.625 q 0,1.125 0.2265,1.4766 0.2266,0.3515 0.9141,0.4141 V -5 h -5.4062 v -0.4062 q 0.6562,-0.0626 0.9375,-0.4219 0.1875,-0.25 0.1875,-1.4688 v -5.9219 q 0,-1.1874 -0.2188,-1.4843 Q 84.5041,-15 83.8166,-15.0781 V -15.5 Z m 24.0705,4.875 h -5.7656 q 0.1093,2.0938 1.1093,3.2969 0.7813,0.9375 1.875,0.9375 0.6719,0 1.2188,-0.375 0.5469,-0.375 1.1719,-1.3594 l 0.3906,0.25 q -0.8594,1.7344 -1.8906,2.4609 -1.0313,0.7266 -2.3907,0.7266 -2.3281,0 -3.5312,-1.7969 -0.9688,-1.4531 -0.9688,-3.5937 0,-2.625 1.4219,-4.1797 1.4219,-1.5547 3.3281,-1.5547 1.5938,0 2.7657,1.3047 1.1718,1.3047 1.2656,3.8828 z m -2.7656,-0.75 q 0,-1.8125 -0.1954,-2.4844 -0.1953,-0.6718 -0.6171,-1.0312 -0.2344,-0.1875 -0.625,-0.1875 -0.5782,0 -0.9532,0.5625 -0.6562,1 -0.6562,2.75 v 0.3906 z"
         id="path51" />
    </g>
    <g
       style="color-interpolation:linearRGB;fill:#0072bd;stroke:#0072bd;stroke-width:2.6667;stroke-linecap:butt;stroke-linejoin:round;color-rendering:optimizeQuality;image-rendering:optimizeQuality;text-rendering:geometricPrecision"
       id="g54">
      <path
         d="m 74,33 0.866,0.1296 0.866,0.3873 0.866,0.6423 0.866,0.8942 0.866,1.1427 0.866,1.3874 0.866,1.6279 0.866,1.864 0.866,2.0951 0.866,2.3212 0.866,2.5416 0.866,2.7564 0.866,2.9649 0.866,3.1672 0.866,3.3627 0.866,3.5513 0.866,3.7329 0.866,3.9069 0.866,4.0734 0.866,4.232 0.866,4.3827 0.866,4.5252 0.866,4.6593 0.866,4.7849 0.866,4.9019 0.866,5.0102 0.866,5.1096 0.866,5.2001 0.866,5.2816 0.866,5.354 0.866,5.4174 0.866,5.4715 0.866,5.5165 0.866,5.5524 0.866,5.5792 0.866,5.5968 0.866,5.6054 0.866,5.605 0.866,5.5956 0.866,5.5775 0.866,5.5505 0.866,5.5151 0.866,5.4709 0.866,5.4186 0.866,5.3579 0.866,5.2892 0.866,5.2127 0.866,5.1284 0.866,5.0367 0.866,4.9376 0.866,4.8315 0.866,4.7185 0.866,4.5988 0.866,4.473 0.866,4.3408 0.866,4.2029 0.866,4.0593 0.866,3.9104 0.866,3.7565 0.866,3.5979 0.866,3.4346 0.866,3.2674 0.866,3.0962 0.866,2.9214 0.866,2.7433 0.866,2.5624 0.866,2.3788 0.866,2.1928 0.866,2.0049 0.866,1.8152 0.866,1.6241 0.866,1.4321 0.866,1.2392 0.866,1.0459 0.866,0.8525 0.866,0.6593 0.866,0.4665 0.866,0.2746 0.866,0.0837 0.866,-0.1058 0.866,-0.2936 0.866,-0.4794 0.866,-0.6631 0.866,-0.844 0.866,-1.0224 0.866,-1.1976 0.866,-1.3695 0.866,-1.5379 0.866,-1.7025 0.866,-1.8631 0.866,-2.0194 0.866,-2.1712 0.866,-2.3185 0.866,-2.4607 0.866,-2.598 0.866,-2.7301 0.866,-2.8567 0.866,-2.9777 0.866,-3.0931 0.866,-3.2027 0.866,-3.3062 0.866,-3.4036 0.866,-3.4949 0.866,-3.5798 0.866,-3.6584 0.866,-3.7305 0.866,-3.7961 0.866,-3.8552 0.866,-3.9076 0.866,-3.9534 0.866,-3.9924 0.866,-4.0249 0.866,-4.0507 0.866,-4.0698 0.866,-4.0823 0.866,-4.0882 0.866,-4.0874 0.866,-4.0803 0.866,-4.0666 0.866,-4.0466 0.866,-4.0203 0.866,-3.9879 0.866,-3.9492 0.866,-3.9047 0.866,-3.8542 0.866,-3.7981 0.866,-3.7363 0.866,-3.669 0.866,-3.5965 0.866,-3.5188 0.866,-3.4361 0.866,-3.3486 0.866,-3.2564 0.866,-3.1599 0.866,-3.059 0.866,-2.9541 0.866,-2.8452 0.866,-2.7328 0.866,-2.6169 0.866,-2.4977 0.866,-2.3755 0.866,-2.2505 0.866,-2.1228 0.866,-1.993 0.866,-1.8608 0.866,-1.7267 0.866,-1.5911 0.866,-1.4539 0.866,-1.3156 0.866,-1.1761 0.866,-1.0361 0.866,-0.8953 0.866,-0.7544 0.866,-0.6133 0.866,-0.4724 0.866,-0.3319 0.866,-0.1919 0.866,-0.0527 0.866,0.0853 0.866,0.2222 0.866,0.3577 0.866,0.4915 0.866,0.6234 0.866,0.7533 0.866,0.8809 0.866,1.0062 0.866,1.1288 0.866,1.2487 0.866,1.3656 0.866,1.4794 0.866,1.59 0.866,1.6971 0.866,1.8007 0.866,1.9006 0.866,1.9966 0.866,2.0887 0.866,2.1768 0.866,2.2607 0.866,2.3403 0.866,2.4155 0.866,2.4863 0.866,2.5527 0.866,2.6143 0.866,2.6713 0.866,2.7236 0.866,2.7712 0.866,2.814 0.866,2.8519 0.866,2.885 0.866,2.9132 0.866,2.9366 0.866,2.9551 0.866,2.9688 0.866,2.9775 0.866,2.9816 0.866,2.9808 0.866,2.9752 0.866,2.965 0.866,2.9502 0.866,2.9307 0.866,2.9068 0.866,2.8783 0.866,2.8456 0.866,2.8085 0.866,2.7673 0.866,2.7221 0.866,2.6727 0.866,2.6197 0.866,2.5627 0.866,2.5022 0.866,2.4382 0.866,2.3708 0.866,2.3002 0.866,2.2264 0.866,2.1497 0.866,2.0702 0.866,1.9881 0.866,1.9033 0.866,1.8163 0.866,1.7271 0.866,1.6358 0.866,1.5426 0.866,1.4477 0.866,1.3513 0.866,1.2534 0.866,1.1544 0.866,1.0544 0.866,0.9533 0.866,0.8517 0.866,0.7495 0.866,0.6468 0.866,0.544 0.866,0.4412 0.866,0.3384 0.866,0.236 0.866,0.1338 0.866,0.0325 0.866,-0.0682 0.866,-0.168 0.866,-0.2667 0.866,-0.3642 0.866,-0.4603 0.866,-0.555 0.866,-0.648 0.866,-0.7392 0.866,-0.8285 0.866,-0.9158 0.866,-1.0009 0.866,-1.0838 0.866,-1.1643 0.866,-1.2423 0.866,-1.3176 0.866,-1.3904 0.866,-1.4602 0.866,-1.5272 0.866,-1.5913 0.866,-1.6522 0.866,-1.7101 0.866,-1.7648 0.866,-1.8163 0.866,-1.8643 0.866,-1.9092 0.866,-1.9505 0.866,-1.9885 0.866,-2.023 0.866,-2.054 0.866,-2.0814 0.866,-2.1053 0.866,-2.1257 0.866,-2.1426 0.866,-2.1558 0.866,-2.1656 0.866,-2.1718 0.866,-2.1745 0.866,-2.1737 0.866,-2.1695 0.866,-2.1618 0.866,-2.1508 0.866,-2.1364 0.866,-2.1187 0.866,-2.0978 0.866,-2.0738 0.866,-2.0465 0.866,-2.0163 0.866,-1.9831 0.866,-1.947 0.866,-1.9081 0.866,-1.8664 0.866,-1.8221 0.866,-1.7753 0.866,-1.726 0.866,-1.6744 0.866,-1.6204 0.866,-1.5644 0.866,-1.5063 0.866,-1.4462 0.866,-1.3844 0.866,-1.3208 0.866,-1.2556 0.866,-1.1889 0.866,-1.1209 0.866,-1.0517 0.866,-0.9812 0.866,-0.9099 0.866,-0.8376 0.866,-0.7645 0.866,-0.6909 0.866,-0.6167 0.866,-0.5421 0.866,-0.4673 0.866,-0.3923 0.866,-0.3172 0.866,-0.2424 0.866,-0.1676 0.866,-0.0932 0.866,-0.0193 0.866,0.0541 0.866,0.1269 0.866,0.1987 0.866,0.2698 0.866,0.3399 0.866,0.4088 0.866,0.4766 0.866,0.543 0.866,0.6081 0.866,0.6716 0.866,0.7336 0.866,0.794 0.866,0.8525 0.866,0.9094 0.866,0.9641 0.866,1.0171 0.866,1.0679 0.866,1.1166 0.866,1.1632 0.866,1.2076 0.866,1.2496 0.866,1.2893 0.866,1.3268 0.866,1.3617 0.866,1.3942 0.866,1.4242 0.866,1.4518 0.866,1.4768 0.866,1.4992 0.866,1.519 0.866,1.5364 0.866,1.5511 0.866,1.5632 0.866,1.5727 0.866,1.5797 0.866,1.5841 0.866,1.5858 0.866,1.5852 0.866,1.5819 0.866,1.5762 0.866,1.568 0.866,1.5574 0.866,1.5443 0.866,1.5289 0.866,1.5113 0.866,1.4913 0.866,1.4691 0.866,1.4447 0.866,1.4183 0.866,1.3898 0.866,1.3593 0.866,1.3269 0.866,1.2926 0.866,1.2566 0.866,1.2188 0.866,1.1793 0.866,1.1385 0.866,1.0959 0.866,1.0521 0.866,1.0068 0.866,0.9605 0.866,0.9128 0.866,0.8642 0.866,0.8145 0.866,0.7639 0.866,0.7125 0.866,0.6604 0.866,0.6077 0.866,0.5544 0.866,0.5006 0.866,0.4466 0.866,0.3921 0.866,0.3375 0.866,0.2828 0.866,0.2282 0.866,0.1734 0.866,0.119 0.866,0.0648 0.866,0.0108 0.866,-0.0426 0.866,-0.0957 0.866,-0.148 0.866,-0.1999 0.866,-0.2508 0.866,-0.3011 0.866,-0.3505 0.866,-0.3989 0.866,-0.4462 0.866,-0.4926 0.866,-0.5377 0.866,-0.5816 0.866,-0.6243 0.866,-0.6655 0.866,-0.7055 0.866,-0.744 0.866,-0.781 0.866,-0.8164 0.866,-0.8503 0.866,-0.8826 0.866,-0.9131 0.866,-0.942 0.866,-0.9691 0.866,-0.9946 0.866,-1.0181 0.866,-1.0399 0.866,-1.0599 0.866,-1.0781 0.866,-1.0942 0.866,-1.1087 0.866,-1.1212 0.866,-1.1317 0.866,-1.1405 0.866,-1.1474 0.866,-1.1522 0.866,-1.1554 0.866,-1.1566 0.866,-1.156 0.866,-1.1535 0.866,-1.1492 0.866,-1.1431 0.866,-1.1352 0.866,-1.1257 0.866,-1.1143 0.866,-1.1013 0.866,-1.0867 0.866,-1.0704 0.866,-1.0525 0.866,-1.0332 0.866,-1.0122 0.866,-0.99 0.866,-0.9663 0.866,-0.9411 0.866,-0.9148 0.866,-0.8872 0.866,-0.8584 0.866,-0.8284 0.866,-0.7974 0.866,-0.7653 0.866,-0.7323 0.866,-0.6984 0.866,-0.6636 0.866,-0.6281 0.866,-0.5918 0.866,-0.5549 0.866,-0.5174 0.866,-0.4794 0.866,-0.4409 0.866,-0.402 0.866,-0.3627 0.866,-0.3233 0.866,-0.2836 0.866,-0.2438 0.866,-0.2038 0.866,-0.164 0.866,-0.1242 0.866,-0.0844 0.866,-0.0449 0.866,-0.006 0.866,0.0335 0.866,0.072 0.866,0.1102 0.866,0.148 0.866,0.1852 0.866,0.2218 0.866,0.2577 0.866,0.293 0.866,0.3274 0.866,0.3612 0.866,0.3941 0.866,0.4261 0.866,0.457 0.866,0.4872 0.866,0.5162 0.866,0.5443 0.866,0.5711 0.866,0.5969 0.866,0.6216 0.866,0.6449 0.866,0.6673 0.866,0.6882 0.866,0.7079 0.866,0.7264 0.866,0.7435 0.866,0.7593 0.0516,0.0462"
         style="fill:none;fill-rule:evenodd"
         id="path52" />
      <path
         d="m 74,33 0.866,0.1266 0.866,0.3667 0.866,0.5876 0.866,0.7907 0.866,0.9769 0.866,1.1474 0.866,1.3029 0.866,1.4446 0.866,1.573 0.866,1.6891 0.866,1.7938 0.866,1.8877 0.866,1.9713 0.866,2.0457 0.866,2.111 0.866,2.1681 0.866,2.2175 0.866,2.2597 0.866,2.2951 0.866,2.3244 0.866,2.3477 0.866,2.3657 0.866,2.3787 0.866,2.387 0.866,2.3909 0.866,2.391 0.866,2.3872 0.866,2.3803 0.866,2.37 0.866,2.357 0.866,2.3413 0.866,2.3233 0.866,2.303 0.866,2.2808 0.866,2.2567 0.866,2.2312 0.866,2.204 0.866,2.1755 0.866,2.146 0.866,2.1154 0.866,2.0839 0.866,2.0516 0.866,2.0187 0.866,1.9851 0.866,1.9511 0.866,1.9168 0.866,1.882 0.866,1.8471 0.866,1.8121 0.866,1.7768 0.866,1.7417 0.866,1.7065 0.866,1.6715 0.866,1.6364 0.866,1.6017 0.866,1.5671 0.866,1.5328 0.866,1.4988 0.866,1.465 0.866,1.4316 0.866,1.3986 0.866,1.3659 0.866,1.3338 0.866,1.3019 0.866,1.2706 0.866,1.2396 0.866,1.2093 0.866,1.1793 0.866,1.1498 0.866,1.1209 0.866,1.0924 0.866,1.0644 0.866,1.037 0.866,1.0101 0.866,0.9837 0.866,0.9578 0.866,0.9324 0.866,0.9076 0.866,0.8832 0.866,0.8594 0.866,0.8361 0.866,0.8133 0.866,0.791 0.866,0.7692 0.866,0.7478 0.866,0.7271 0.866,0.7066 0.866,0.6869 0.866,0.6674 0.866,0.6485 0.866,0.6301 0.866,0.612 0.866,0.5944 0.866,0.5774 0.866,0.5606 0.866,0.5443 0.866,0.5284 0.866,0.513 0.866,0.498 0.866,0.4832 0.866,0.469 0.866,0.4551 0.866,0.4415 0.866,0.4284 0.866,0.4155 0.866,0.4031 0.866,0.3909 0.866,0.3791 0.866,0.3677 0.866,0.3565 0.866,0.3456 0.866,0.3351 0.866,0.3248 0.866,0.3149 0.866,0.3052 0.866,0.2958 0.866,0.2866 0.866,0.2778 0.866,0.2692 0.866,0.2607 0.866,0.2527 0.866,0.2447 0.866,0.2371 0.866,0.2297 0.866,0.2224 0.866,0.2155 0.866,0.2086 0.866,0.202 0.866,0.1957 0.866,0.1894 0.866,0.1834 0.866,0.1776 0.866,0.1719 0.866,0.1664 0.866,0.1611 0.866,0.1559 0.866,0.1509 0.866,0.146 0.866,0.1414 0.866,0.1368 0.866,0.1323 0.866,0.1281 0.866,0.1239 0.866,0.1199 0.866,0.116 0.866,0.1123 0.866,0.1085 0.866,0.105 0.866,0.1016 0.866,0.0983 0.866,0.095 0.866,0.0919 0.866,0.0889 0.866,0.086 0.866,0.0832 0.866,0.0804 0.866,0.0777 0.866,0.0752 0.866,0.0726 0.866,0.0703 0.866,0.068 0.866,0.0656 0.866,0.0635 0.866,0.0614 0.866,0.0594 0.866,0.0573 0.866,0.0555 0.866,0.0535 0.866,0.0518 0.866,0.0501 0.866,0.0484 0.866,0.0467 0.866,0.0452 0.866,0.0437 0.866,0.0422 0.866,0.0408 0.866,0.0394 0.866,0.038 0.866,0.0368 0.866,0.0355 0.866,0.0344 0.866,0.0331 0.866,0.0321 0.866,0.0309 0.866,0.0299 0.866,0.0289 0.866,0.0279 0.866,0.027 0.866,0.026 0.866,0.0252 0.866,0.0243 0.866,0.0234 0.866,0.0227 0.866,0.0219 0.866,0.0211 0.866,0.0204 0.866,0.0197 0.866,0.019 0.866,0.0184 0.866,0.0178 0.866,0.0171 0.866,0.0166 0.866,0.0159 0.866,0.0155 0.866,0.0148 0.866,0.0144 0.866,0.0139 0.866,0.0134 0.866,0.013 0.866,0.0125 0.866,0.012 0.866,0.0117 0.866,0.0112 0.866,0.0108 0.866,0.0105 0.866,0.0101 0.866,0.01 0.866,0.009 0.866,0.009 0.866,0.009 0.866,0.008 0.866,0.008 0.866,0.008 0.866,0.008 0.866,0.007 0.866,0.007 0.866,0.007 0.866,0.007 0.866,0.006 0.866,0.006 0.866,0.006 0.866,0.006 0.866,0.006 0.866,0.005 0.866,0.005 0.866,0.005 0.866,0.005 0.866,0.005 0.866,0.004 0.866,0.004 0.866,0.004 0.866,0.004 0.866,0.004 0.866,0.004 0.866,0.004 0.866,0.003 0.866,0.003 0.866,0.003 0.866,0.003 0.866,0.003 0.866,0.003 0.866,0.003 0.866,0.003 0.866,0.003 0.866,0.002 0.866,0.002 0.866,0.002 0.866,0.002 0.866,0.002 0.866,0.002 0.866,0.002 0.866,0.002 0.866,0.002 0.866,0.002 0.866,0.002 0.866,0.002 0.866,0.002 0.866,0.002 0.866,0.001 0.866,0.002 0.866,0.001 0.866,10e-4 0.866,0.001 0.866,0.001 0.866,0.001 0.866,0.001 0.866,10e-4 0.866,0.001 0.866,0.001 0.866,0.001 0.866,0.001 0.866,9e-4 0.866,9e-4 0.866,9e-4 0.866,8e-4 0.866,8e-4 0.866,8e-4 0.866,8e-4 0.866,7e-4 0.866,7e-4 0.866,7e-4 0.866,7e-4 0.866,6e-4 0.866,6e-4 0.866,6e-4 0.866,5e-4 0.866,6e-4 0.866,5e-4 0.866,5e-4 0.866,5e-4 0.866,5e-4 0.866,4e-4 0.866,5e-4 0.866,4e-4 0.866,4e-4 0.866,4e-4 0.866,4e-4 0.866,3e-4 0.866,4e-4 0.866,3e-4 0.866,3e-4 0.866,4e-4 0.866,3e-4 0.866,3e-4 0.866,2e-4 0.866,3e-4 0.866,3e-4 0.866,2e-4 0.866,3e-4 0.866,2e-4 0.866,2e-4 0.866,2e-4 0.866,3e-4 0.866,2e-4 0.866,2e-4 0.866,1e-4 0.866,2e-4 0.866,2e-4 0.866,2e-4 0.866,1e-4 0.866,2e-4 0.866,1e-4 0.866,2e-4 0.866,1e-4 0.866,1e-4 0.866,2e-4 0.866,1e-4 0.866,1e-4 0.866,1e-4 0.866,2e-4 0.866,1e-4 0.866,10e-5 0.866,1e-4 0.866,1e-4 0.866,1e-4 0.866,1e-4 h 0.866 l 0.866,1e-4 0.866,1e-4 0.866,1e-4 h 0.866 l 0.866,1e-4 0.866,10e-5 h 0.866 l 0.866,1e-4 0.866,1e-4 h 0.866 l 0.866,1e-4 0.866,1e-4 h 0.866 l 0.866,1e-4 h 0.866 0.866 l 0.866,1e-4 h 0.866 l 0.866,1e-4 h 0.866 l 0.866,1e-4 h 0.866 0.866 l 0.866,10e-5 h 0.866 0.866 l 0.866,1e-4 h 0.866 0.866 l 0.866,1e-4 h 0.866 0.866 0.866 l 0.866,1e-4 h 0.866 0.866 0.866 l 0.866,1e-4 h 0.866 0.866 0.866 0.866 0.866 l 0.866,1e-4 h 0.866 0.866 0.866 0.866 0.866 0.866 l 0.866,1e-4 h 0.866 0.866 0.866 0.866 0.866 0.866 0.866 l 0.866,1e-4 h 0.866 0.866 0.866 0.866 0.866 0.866 0.866 0.866 0.866 0.866 0.866 0.866 0.866 0.866 l 0.866,10e-5 h 0.866 0.866 0.866 0.866 0.866 0.866 0.866 0.866 0.866 0.866 0.866 0.866 0.866 0.866 0.866 0.866 0.866 0.866 0.866 0.866 0.866 0.866 0.866 0.866 0.866 l 0.866,1e-4 h 0.866 0.866 0.866 0.866 0.866 0.866 0.866 0.866 0.866 0.866 0.866 0.866 0.866 0.866 0.866 0.866 0.866 0.866 0.866 0.866 0.866 0.866 0.866 0.866 0.866 0.866 0.866 0.866 0.866 0.866 0.866 0.866 0.866 0.866 0.866 0.866 0.866 0.866 0.866 0.866 0.866 0.866 0.866 0.866 0.866 0.866 0.866 0.866 0.866 0.866 0.866 0.866 0.866 0.0516"
         style="fill:none;fill-rule:evenodd;stroke:#a2142f"
         id="path53" />
      <path
         d="m 74,33 0.866,0.1236 0.866,0.3457 0.866,0.5345 0.866,0.6946 0.866,0.8298 0.866,0.9439 0.866,1.0396 0.866,1.1196 0.866,1.1862 0.866,1.241 0.866,1.286 0.866,1.3224 0.866,1.3513 0.866,1.3741 0.866,1.3915 0.866,1.4041 0.866,1.4129 0.866,1.4182 0.866,1.4206 0.866,1.4207 0.866,1.4186 0.866,1.4146 0.866,1.4092 0.866,1.4026 0.866,1.3947 0.866,1.386 0.866,1.3766 0.866,1.3665 0.866,1.3558 0.866,1.3448 0.866,1.3334 0.866,1.3217 0.866,1.3097 0.866,1.2976 0.866,1.2854 0.866,1.2731 0.866,1.2607 0.866,1.2483 0.866,1.2359 0.866,1.2235 0.866,1.211 0.866,1.1988 0.866,1.1864 0.866,1.1742 0.866,1.162 0.866,1.15 0.866,1.1379 0.866,1.1261 0.866,1.1142 0.866,1.1026 0.866,1.0909 0.866,1.0795 0.866,1.068 0.866,1.0567 0.866,1.0456 0.866,1.0345 0.866,1.0235 0.866,1.0127 0.866,1.0019 0.866,0.9912 0.866,0.9807 0.866,0.9703 0.866,0.96 0.866,0.9498 0.866,0.9396 0.866,0.9297 0.866,0.9198 0.866,0.9099 0.866,0.9003 0.866,0.8907 0.866,0.8812 0.866,0.8718 0.866,0.8625 0.866,0.8533 0.866,0.8443 0.866,0.8352 0.866,0.8264 0.866,0.8175 0.866,0.8088 0.866,0.8002 0.866,0.7917 0.866,0.7832 0.866,0.7749 0.866,0.7666 0.866,0.7585 0.866,0.7503 0.866,0.7424 0.866,0.7345 0.866,0.7266 0.866,0.7189 0.866,0.7112 0.866,0.7036 0.866,0.6961 0.866,0.6887 0.866,0.6814 0.866,0.6741 0.866,0.6669 0.866,0.6598 0.866,0.6528 0.866,0.6458 0.866,0.639 0.866,0.6321 0.866,0.6254 0.866,0.6187 0.866,0.6121 0.866,0.6056 0.866,0.5991 0.866,0.5928 0.866,0.5864 0.866,0.5802 0.866,0.574 0.866,0.5679 0.866,0.5618 0.866,0.5558 0.866,0.5499 0.866,0.5441 0.866,0.5382 0.866,0.5325 0.866,0.5268 0.866,0.5212 0.866,0.5157 0.866,0.5102 0.866,0.5047 0.866,0.4993 0.866,0.494 0.866,0.4888 0.866,0.4835 0.866,0.4784 0.866,0.4733 0.866,0.4682 0.866,0.4633 0.866,0.4583 0.866,0.4534 0.866,0.4486 0.866,0.4438 0.866,0.4391 0.866,0.4344 0.866,0.4297 0.866,0.4252 0.866,0.4207 0.866,0.4161 0.866,0.4118 0.866,0.4073 0.866,0.403 0.866,0.3987 0.866,0.3944 0.866,0.3903 0.866,0.3861 0.866,0.3819 0.866,0.3779 0.866,0.3739 0.866,0.3699 0.866,0.3659 0.866,0.3621 0.866,0.3581 0.866,0.3544 0.866,0.3506 0.866,0.3468 0.866,0.3432 0.866,0.3395 0.866,0.3358 0.866,0.3323 0.866,0.3288 0.866,0.3252 0.866,0.3218 0.866,0.3183 0.866,0.315 0.866,0.3116 0.866,0.3082 0.866,0.305 0.866,0.3017 0.866,0.2986 0.866,0.2953 0.866,0.2922 0.866,0.289 0.866,0.286 0.866,0.283 0.866,0.2799 0.866,0.2769 0.866,0.274 0.866,0.2711 0.866,0.2682 0.866,0.2653 0.866,0.2625 0.866,0.2597 0.866,0.2569 0.866,0.2542 0.866,0.2514 0.866,0.2488 0.866,0.2462 0.866,0.2435 0.866,0.2409 0.866,0.2384 0.866,0.2358 0.866,0.2333 0.866,0.2308 0.866,0.2283 0.866,0.2259 0.866,0.2235 0.866,0.2212 0.866,0.2187 0.866,0.2165 0.866,0.2141 0.866,0.2118 0.866,0.2096 0.866,0.2074 0.866,0.2051 0.866,0.203 0.866,0.2008 0.866,0.1986 0.866,0.1965 0.866,0.1945 0.866,0.1923 0.866,0.1903 0.866,0.1883 0.866,0.1863 0.866,0.1843 0.866,0.1823 0.866,0.1804 0.866,0.1785 0.866,0.1765 0.866,0.1747 0.866,0.1728 0.866,0.171 0.866,0.1691 0.866,0.1674 0.866,0.1655 0.866,0.1638 0.866,0.1621 0.866,0.1603 0.866,0.1586 0.866,0.1569 0.866,0.1553 0.866,0.1536 0.866,0.1519 0.866,0.1504 0.866,0.1487 0.866,0.1471 0.866,0.1456 0.866,0.1441 0.866,0.1424 0.866,0.141 0.866,0.1395 0.866,0.138 0.866,0.1365 0.866,0.135 0.866,0.1337 0.866,0.1322 0.866,0.1307 0.866,0.1294 0.866,0.128 0.866,0.1267 0.866,0.1253 0.866,0.1239 0.866,0.1227 0.866,0.1213 0.866,0.12 0.866,0.1188 0.866,0.1175 0.866,0.1162 0.866,0.115 0.866,0.1138 0.866,0.1126 0.866,0.1113 0.866,0.1102 0.866,0.109 0.866,0.1078 0.866,0.1067 0.866,0.1056 0.866,0.1044 0.866,0.1033 0.866,0.1022 0.866,0.1011 0.866,0.1001 0.866,0.0989 0.866,0.098 0.866,0.0968 0.866,0.0959 0.866,0.0948 0.866,0.0938 0.866,0.0928 0.866,0.0918 0.866,0.0909 0.866,0.0899 0.866,0.0889 0.866,0.0879 0.866,0.0871 0.866,0.0861 0.866,0.0852 0.866,0.0842 0.866,0.0834 0.866,0.0825 0.866,0.0816 0.866,0.0808 0.866,0.0798 0.866,0.0791 0.866,0.0781 0.866,0.0774 0.866,0.0765 0.866,0.0757 0.866,0.075 0.866,0.074 0.866,0.0734 0.866,0.0725 0.866,0.0718 0.866,0.071 0.866,0.0702 0.866,0.0695 0.866,0.0687 0.866,0.0681 0.866,0.0672 0.866,0.0666 0.866,0.0659 0.866,0.0651 0.866,0.0645 0.866,0.0638 0.866,0.0631 0.866,0.0624 0.866,0.0618 0.866,0.0611 0.866,0.0604 0.866,0.0598 0.866,0.0592 0.866,0.0585 0.866,0.058 0.866,0.0573 0.866,0.0566 0.866,0.0561 0.866,0.0555 0.866,0.0549 0.866,0.0543 0.866,0.0537 0.866,0.0532 0.866,0.0526 0.866,0.052 0.866,0.0515 0.866,0.0509 0.866,0.0504 0.866,0.0499 0.866,0.0493 0.866,0.0488 0.866,0.0482 0.866,0.0478 0.866,0.0472 0.866,0.0468 0.866,0.0462 0.866,0.0457 0.866,0.0453 0.866,0.0448 0.866,0.0443 0.866,0.0438 0.866,0.0434 0.866,0.0429 0.866,0.0424 0.866,0.042 0.866,0.0416 0.866,0.0411 0.866,0.0406 0.866,0.0402 0.866,0.0398 0.866,0.0394 0.866,0.039 0.866,0.0385 0.866,0.0381 0.866,0.0378 0.866,0.0373 0.866,0.0369 0.866,0.0365 0.866,0.0362 0.866,0.0357 0.866,0.0354 0.866,0.035 0.866,0.0346 0.866,0.0343 0.866,0.0339 0.866,0.0335 0.866,0.0332 0.866,0.0328 0.866,0.0324 0.866,0.0322 0.866,0.0317 0.866,0.0315 0.866,0.0311 0.866,0.0308 0.866,0.0304 0.866,0.0301 0.866,0.0298 0.866,0.0295 0.866,0.0292 0.866,0.0288 0.866,0.0286 0.866,0.0282 0.866,0.028 0.866,0.0276 0.866,0.0274 0.866,0.027 0.866,0.0268 0.866,0.0265 0.866,0.0262 0.866,0.0259 0.866,0.0256 0.866,0.0254 0.866,0.0251 0.866,0.0249 0.866,0.0245 0.866,0.0243 0.866,0.0241 0.866,0.0238 0.866,0.0235 0.866,0.0233 0.866,0.023 0.866,0.0228 0.866,0.0226 0.866,0.0223 0.866,0.0221 0.866,0.0218 0.866,0.0216 0.866,0.0214 0.866,0.0211 0.866,0.021 0.866,0.0206 0.866,0.0205 0.866,0.0203 0.866,0.02 0.866,0.0199 0.866,0.0196 0.866,0.0194 0.866,0.0192 0.866,0.019 0.866,0.0188 0.866,0.0186 0.866,0.0184 0.866,0.0182 0.866,0.018 0.866,0.0178 0.866,0.0176 0.866,0.0175 0.866,0.0172 0.866,0.0171 0.866,0.0169 0.866,0.0167 0.866,0.0165 0.866,0.0163 0.866,0.0162 0.866,0.016 0.866,0.0159 0.866,0.0156 0.866,0.0155 0.866,0.0153 0.866,0.0152 0.866,0.015 0.866,0.0149 0.866,0.0147 0.866,0.0145 0.866,0.0144 0.866,0.0142 0.866,0.0141 0.866,0.0139 0.866,0.0138 0.866,0.0136 0.866,0.0135 0.866,0.0133 0.866,0.0132 0.866,0.0131 0.866,0.0129 0.866,0.0127 0.866,0.0127 0.866,0.0125 0.866,0.0124 0.866,0.0122 0.866,0.0121 0.866,0.012 0.866,0.0119 0.866,0.0117 0.866,0.0116 0.866,0.0115 0.866,0.0113 0.866,0.0113 0.866,0.0111 0.866,0.011 0.866,0.0109 0.866,0.0107 0.866,0.0107 0.866,0.0105 0.866,0.0104 0.866,0.0104 0.866,0.0101 0.866,0.0101 0.866,0.01 0.866,0.01 0.866,0.01 0.866,0.01 0.866,0.01 0.866,0.01 0.866,0.009 0.866,0.009 0.866,0.009 0.866,0.009 0.866,0.009 0.866,0.009 0.0516,5e-4"
         style="fill:none;fill-rule:evenodd;stroke:#77ac30"
         id="path54" />
    </g>
    <g
       transform="translate(432,67)"
       style="font-size:21.3333px;font-family:mwb_cmmi10;color-interpolation:linearRGB;color-rendering:optimizeQuality;image-rendering:optimizeQuality;text-rendering:geometricPrecision"
       id="g55">
      <path
         style="stroke:none"
         d="m 3.4219,3.2656 q 0.0312,-0.2344 0.2969,-0.2344 0.0156,0 0.3906,0.2032 0.375,0.2031 0.8281,0.3672 0.4531,0.164 0.8906,0.164 0.3907,0 0.6563,-0.3359 Q 6.75,3.0938 6.75,2.7031 6.75,2.1562 6.1719,1.9219 L 2.6094,0.5469 Q 1.6875,0.1875 1.0859,-0.5234 0.4844,-1.2344 0.4844,-2.1406 q 0,-0.8125 0.4297,-1.6875 0.4297,-0.875 1.1093,-1.586 Q 2.7031,-6.125 3.4688,-6.5781 2.8438,-6.9375 2.5,-7.5156 2.1562,-8.0938 2.1562,-8.7969 q 0,-0.7343 0.3047,-1.375 0.3047,-0.6406 0.8282,-1.164 0.5234,-0.5235 1.1718,-0.8829 0.6485,-0.3593 1.3047,-0.5468 -0.0937,-0.4375 -0.0937,-0.7813 0,-1.1406 0.4375,-1.1406 0.1094,0 0.1953,0.0859 0.0859,0.086 0.0859,0.1954 0,0.1093 -0.0547,0.4531 -0.0547,0.3437 -0.0547,0.4219 0,0.3593 0.0938,0.6406 Q 6.9062,-13 7.4062,-13 q 1.9376,0 1.9376,0.5938 0,0.7031 -2.1407,0.7031 -0.6562,0 -1.0781,-0.4375 -0.5938,0.3125 -1.1094,0.875 -0.5156,0.5625 -0.8047,1.25 -0.289,0.6875 -0.289,1.4062 0,0.9844 0.5625,1.5782 0.75,-0.2657 1.5,-0.2657 1.9375,0 1.9375,0.5938 0,0.7187 -2.1563,0.7187 -0.8594,0 -1.6406,-0.2656 -0.9219,0.5 -1.7031,1.5234 -0.7813,1.0235 -0.7813,1.9766 0,0.6094 0.4453,1.0781 0.4453,0.4688 1.1016,0.75 L 6.9062,0.5156 Q 7.3906,0.7031 7.6953,1.1094 8,1.5156 8,2.0469 8,2.9062 7.3359,3.6094 6.6719,4.3125 5.8125,4.3125 5.5469,4.3125 4.9453,4.1641 4.3438,4.0156 3.8828,3.7812 3.4219,3.5469 3.4219,3.2656 Z M 5.125,-6.6406 q 0.2812,0.1094 0.6875,0.1094 1.0156,0 1.4531,-0.125 -0.3906,-0.0782 -1.2968,-0.0782 -0.3594,0 -0.8438,0.0938 z m 1.6094,-5.7188 q 0.1875,0.1094 0.5156,0.1094 1,0 1.4531,-0.1094 z"
         id="path55" />
    </g>
    <g
       transform="translate(442,67)"
       style="font-size:21.3333px;font-family:'Times New Roman';color-interpolation:linearRGB;color-rendering:optimizeQuality;image-rendering:optimizeQuality;text-rendering:geometricPrecision"
       id="g56">
      <path
         style="stroke:none"
         d="m 5.7031,-9.0469 h 11.0625 v 0.8281 H 5.7031 Z m 0,3.3281 H 16.7656 V -4.875 H 5.7031 Z M 23.4414,-6.875 q 0,-2.375 0.7109,-4.0938 0.711,-1.7187 1.9141,-2.5624 0.9219,-0.6563 1.9062,-0.6563 1.5938,0 2.8594,1.625 1.5938,2.0156 1.5938,5.4844 0,2.4062 -0.6954,4.1015 -0.6953,1.6954 -1.7812,2.461 -1.0859,0.7656 -2.0859,0.7656 -1.9844,0 -3.3125,-2.3594 -1.1094,-1.9687 -1.1094,-4.7656 z m 2,0.2656 q 0,2.8594 0.7031,4.6875 0.5938,1.5157 1.75,1.5157 0.5469,0 1.1484,-0.4922 0.6016,-0.4922 0.8985,-1.6641 0.4687,-1.7656 0.4687,-4.9687 0,-2.3907 -0.4843,-3.9688 -0.375,-1.1875 -0.9532,-1.6719 -0.4218,-0.3437 -1.0156,-0.3437 -0.7031,0 -1.2344,0.625 -0.75,0.8594 -1.0156,2.6797 -0.2656,1.8203 -0.2656,3.6015 z m 10.5156,4.625 q 0.4844,0 0.8125,0.3282 0.3281,0.3281 0.3281,0.8124 0,0.4688 -0.3359,0.7969 -0.3359,0.3281 -0.8047,0.3281 -0.4687,0 -0.8047,-0.3281 -0.3359,-0.3281 -0.3359,-0.7969 0,-0.4843 0.3359,-0.8124 0.336,-0.3282 0.8047,-0.3282 z m 5.1719,-10.5625 3.375,-1.6406 h 0.3437 v 11.7344 q 0,1.1719 0.0938,1.4609 0.0937,0.2891 0.4062,0.4375 0.3125,0.1485 1.25,0.1797 V 0 h -5.2343 v -0.375 q 0.9843,-0.0312 1.2734,-0.1797 0.2891,-0.1484 0.3984,-0.3984 0.1094,-0.25 0.1094,-1.5 v -7.5 q 0,-1.5157 -0.0937,-1.9531 -0.0782,-0.3282 -0.2657,-0.4844 -0.1875,-0.1563 -0.4531,-0.1563 -0.375,0 -1.0625,0.3281 z"
         id="path56" />
    </g>
    <g
       style="color-interpolation:linearRGB;fill:#0072bd;stroke:#0072bd;stroke-width:2.6667;stroke-linecap:butt;stroke-linejoin:round;color-rendering:optimizeQuality;image-rendering:optimizeQuality;text-rendering:geometricPrecision"
       id="g57">
      <line
         y2="58.5"
         style="fill:none"
         x1="389"
         x2="429"
         y1="58.5"
         id="line56" />
    </g>
    <g
       transform="translate(432,92)"
       style="font-size:21.3333px;font-family:mwb_cmmi10;color-interpolation:linearRGB;color-rendering:optimizeQuality;image-rendering:optimizeQuality;text-rendering:geometricPrecision"
       id="g58">
      <path
         style="stroke:none"
         d="m 3.4219,3.2656 q 0.0312,-0.2344 0.2969,-0.2344 0.0156,0 0.3906,0.2032 0.375,0.2031 0.8281,0.3672 0.4531,0.164 0.8906,0.164 0.3907,0 0.6563,-0.3359 Q 6.75,3.0938 6.75,2.7031 6.75,2.1562 6.1719,1.9219 L 2.6094,0.5469 Q 1.6875,0.1875 1.0859,-0.5234 0.4844,-1.2344 0.4844,-2.1406 q 0,-0.8125 0.4297,-1.6875 0.4297,-0.875 1.1093,-1.586 Q 2.7031,-6.125 3.4688,-6.5781 2.8438,-6.9375 2.5,-7.5156 2.1562,-8.0938 2.1562,-8.7969 q 0,-0.7343 0.3047,-1.375 0.3047,-0.6406 0.8282,-1.164 0.5234,-0.5235 1.1718,-0.8829 0.6485,-0.3593 1.3047,-0.5468 -0.0937,-0.4375 -0.0937,-0.7813 0,-1.1406 0.4375,-1.1406 0.1094,0 0.1953,0.0859 0.0859,0.086 0.0859,0.1954 0,0.1093 -0.0547,0.4531 -0.0547,0.3437 -0.0547,0.4219 0,0.3593 0.0938,0.6406 Q 6.9062,-13 7.4062,-13 q 1.9376,0 1.9376,0.5938 0,0.7031 -2.1407,0.7031 -0.6562,0 -1.0781,-0.4375 -0.5938,0.3125 -1.1094,0.875 -0.5156,0.5625 -0.8047,1.25 -0.289,0.6875 -0.289,1.4062 0,0.9844 0.5625,1.5782 0.75,-0.2657 1.5,-0.2657 1.9375,0 1.9375,0.5938 0,0.7187 -2.1563,0.7187 -0.8594,0 -1.6406,-0.2656 -0.9219,0.5 -1.7031,1.5234 -0.7813,1.0235 -0.7813,1.9766 0,0.6094 0.4453,1.0781 0.4453,0.4688 1.1016,0.75 L 6.9062,0.5156 Q 7.3906,0.7031 7.6953,1.1094 8,1.5156 8,2.0469 8,2.9062 7.3359,3.6094 6.6719,4.3125 5.8125,4.3125 5.5469,4.3125 4.9453,4.1641 4.3438,4.0156 3.8828,3.7812 3.4219,3.5469 3.4219,3.2656 Z M 5.125,-6.6406 q 0.2812,0.1094 0.6875,0.1094 1.0156,0 1.4531,-0.125 -0.3906,-0.0782 -1.2968,-0.0782 -0.3594,0 -0.8438,0.0938 z m 1.6094,-5.7188 q 0.1875,0.1094 0.5156,0.1094 1,0 1.4531,-0.1094 z"
         id="path57" />
    </g>
    <g
       transform="translate(442,92)"
       style="font-size:21.3333px;font-family:'Times New Roman';color-interpolation:linearRGB;color-rendering:optimizeQuality;image-rendering:optimizeQuality;text-rendering:geometricPrecision"
       id="g59">
      <path
         style="stroke:none"
         d="m 5.7031,-9.0469 h 11.0625 v 0.8281 H 5.7031 Z m 0,3.3281 H 16.7656 V -4.875 H 5.7031 Z m 19.4414,-6.8281 3.375,-1.6406 h 0.3438 v 11.7344 q 0,1.1719 0.0937,1.4609 0.0938,0.2891 0.4063,0.4375 0.3125,0.1485 1.25,0.1797 V 0 h -5.2344 v -0.375 q 0.9844,-0.0312 1.2734,-0.1797 0.2891,-0.1484 0.3985,-0.3984 0.1093,-0.25 0.1093,-1.5 v -7.5 q 0,-1.5157 -0.0937,-1.9531 -0.0781,-0.3282 -0.2656,-0.4844 -0.1875,-0.1563 -0.4532,-0.1563 -0.375,0 -1.0625,0.3281 z"
         id="path58" />
    </g>
    <g
       style="color-interpolation:linearRGB;fill:#a2142f;stroke:#a2142f;stroke-width:2.6667;stroke-linecap:butt;stroke-linejoin:round;color-rendering:optimizeQuality;image-rendering:optimizeQuality;text-rendering:geometricPrecision"
       id="g60">
      <line
         y2="84"
         style="fill:none"
         x1="389"
         x2="429"
         y1="84"
         id="line59" />
    </g>
    <g
       transform="translate(432,118)"
       style="font-size:21.3333px;font-family:mwb_cmmi10;color-interpolation:linearRGB;color-rendering:optimizeQuality;image-rendering:optimizeQuality;text-rendering:geometricPrecision"
       id="g61">
      <path
         style="stroke:none"
         d="m 3.4219,3.2656 q 0.0312,-0.2344 0.2969,-0.2344 0.0156,0 0.3906,0.2032 0.375,0.2031 0.8281,0.3672 0.4531,0.164 0.8906,0.164 0.3907,0 0.6563,-0.3359 Q 6.75,3.0938 6.75,2.7031 6.75,2.1562 6.1719,1.9219 L 2.6094,0.5469 Q 1.6875,0.1875 1.0859,-0.5234 0.4844,-1.2344 0.4844,-2.1406 q 0,-0.8125 0.4297,-1.6875 0.4297,-0.875 1.1093,-1.586 Q 2.7031,-6.125 3.4688,-6.5781 2.8438,-6.9375 2.5,-7.5156 2.1562,-8.0938 2.1562,-8.7969 q 0,-0.7343 0.3047,-1.375 0.3047,-0.6406 0.8282,-1.164 0.5234,-0.5235 1.1718,-0.8829 0.6485,-0.3593 1.3047,-0.5468 -0.0937,-0.4375 -0.0937,-0.7813 0,-1.1406 0.4375,-1.1406 0.1094,0 0.1953,0.0859 0.0859,0.086 0.0859,0.1954 0,0.1093 -0.0547,0.4531 -0.0547,0.3437 -0.0547,0.4219 0,0.3593 0.0938,0.6406 Q 6.9062,-13 7.4062,-13 q 1.9376,0 1.9376,0.5938 0,0.7031 -2.1407,0.7031 -0.6562,0 -1.0781,-0.4375 -0.5938,0.3125 -1.1094,0.875 -0.5156,0.5625 -0.8047,1.25 -0.289,0.6875 -0.289,1.4062 0,0.9844 0.5625,1.5782 0.75,-0.2657 1.5,-0.2657 1.9375,0 1.9375,0.5938 0,0.7187 -2.1563,0.7187 -0.8594,0 -1.6406,-0.2656 -0.9219,0.5 -1.7031,1.5234 -0.7813,1.0235 -0.7813,1.9766 0,0.6094 0.4453,1.0781 0.4453,0.4688 1.1016,0.75 L 6.9062,0.5156 Q 7.3906,0.7031 7.6953,1.1094 8,1.5156 8,2.0469 8,2.9062 7.3359,3.6094 6.6719,4.3125 5.8125,4.3125 5.5469,4.3125 4.9453,4.1641 4.3438,4.0156 3.8828,3.7812 3.4219,3.5469 3.4219,3.2656 Z M 5.125,-6.6406 q 0.2812,0.1094 0.6875,0.1094 1.0156,0 1.4531,-0.125 -0.3906,-0.0782 -1.2968,-0.0782 -0.3594,0 -0.8438,0.0938 z m 1.6094,-5.7188 q 0.1875,0.1094 0.5156,0.1094 1,0 1.4531,-0.1094 z"
         id="path60" />
    </g>
    <g
       transform="translate(442,118)"
       style="font-size:21.3333px;font-family:'Times New Roman';color-interpolation:linearRGB;color-rendering:optimizeQuality;image-rendering:optimizeQuality;text-rendering:geometricPrecision"
       id="g62">
      <path
         style="stroke:none"
         d="m 5.7031,-9.0469 h 11.0625 v 0.8281 H 5.7031 Z m 0,3.3281 H 16.7656 V -4.875 H 5.7031 Z M 32.3008,-2.6719 31.332,0 h -8.2031 v -0.375 q 3.625,-3.3125 5.1015,-5.3984 1.4766,-2.086 1.4766,-3.8204 0,-1.3281 -0.8125,-2.1796 -0.8125,-0.8516 -1.9375,-0.8516 -1.0312,0 -1.8437,0.6016 -0.8125,0.6015 -1.2032,1.7578 h -0.3906 q 0.2656,-1.8906 1.3281,-2.9063 1.0625,-1.0156 2.6407,-1.0156 1.7031,0 2.8359,1.0859 1.1328,1.086 1.1328,2.5547 0,1.0625 -0.5,2.125 -0.75,1.6563 -2.4531,3.5157 -2.5625,2.7812 -3.1875,3.3593 h 3.625 q 1.1094,0 1.5547,-0.0859 0.4453,-0.086 0.8047,-0.336 0.3593,-0.25 0.625,-0.7031 z"
         id="path61" />
    </g>
    <g
       style="color-interpolation:linearRGB;fill:#77ac30;stroke:#77ac30;stroke-width:2.6667;stroke-linecap:butt;stroke-linejoin:round;color-rendering:optimizeQuality;image-rendering:optimizeQuality;text-rendering:geometricPrecision"
       id="g63">
      <line
         y2="109.5"
         style="fill:none"
         x1="389"
         x2="429"
         y1="109.5"
         id="line62" />
    </g>
  </g>
</svg>
